<?xml version="1.0" encoding="utf-8" standalone="no"?>
<!DOCTYPE svg PUBLIC "-//W3C//DTD SVG 1.1//EN"
  "http://www.w3.org/Graphics/SVG/1.1/DTD/svg11.dtd">
<svg xmlns:xlink="http://www.w3.org/1999/xlink" width="405.725294pt" height="403.434213pt" viewBox="0 0 405.725294 403.434213" xmlns="http://www.w3.org/2000/svg" version="1.1">
 <metadata>
  <rdf:RDF xmlns:dc="http://purl.org/dc/elements/1.1/" xmlns:cc="http://creativecommons.org/ns#" xmlns:rdf="http://www.w3.org/1999/02/22-rdf-syntax-ns#">
   <cc:Work>
    <dc:type rdf:resource="http://purl.org/dc/dcmitype/StillImage"/>
    <dc:date>2026-06-24T14:26:26.894592</dc:date>
    <dc:format>image/svg+xml</dc:format>
    <dc:creator>
     <cc:Agent>
      <dc:title>Matplotlib v3.10.8, https://matplotlib.org/</dc:title>
     </cc:Agent>
    </dc:creator>
   </cc:Work>
  </rdf:RDF>
 </metadata>
 <defs>
  <style type="text/css">*{stroke-linejoin: round; stroke-linecap: butt}</style>
 </defs>
 <g id="figure_1">
  <g id="patch_1">
   <path d="M 0 403.434213 
L 405.725294 403.434213 
L 405.725294 0 
L 0 0 
z
" style="fill: #ffffff"/>
  </g>
  <g id="axes_1">
   <g id="patch_2">
    <path d="M 368.756202 216.753125 
C 368.756202 194.912183 364.454012 173.283616 356.095846 153.105217 
C 347.737679 132.926817 335.48608 114.591004 320.042202 99.147125 
C 304.598323 83.703247 286.26251 71.451648 266.08411 63.093481 
C 245.905711 54.735314 224.277144 50.433125 202.436202 50.433125 
C 180.595259 50.433125 158.966693 54.735314 138.788293 63.093481 
C 118.609894 71.451648 100.27408 83.703247 84.830202 99.147125 
C 69.386323 114.591004 57.134725 132.926817 48.776558 153.105217 
C 40.418391 173.283616 36.116202 194.912183 36.116202 216.753125 
C 36.116202 238.594067 40.418391 260.222634 48.776558 280.401033 
C 57.134725 300.579433 69.386323 318.915246 84.830202 334.359125 
C 100.27408 349.803003 118.609894 362.054602 138.788293 370.412769 
C 158.966693 378.770936 180.595259 383.073125 202.436202 383.073125 
C 224.277144 383.073125 245.905711 378.770936 266.08411 370.412769 
C 286.26251 362.054602 304.598323 349.803003 320.042202 334.359125 
C 335.48608 318.915246 347.737679 300.579433 356.095846 280.401033 
C 364.454012 260.222634 368.756202 238.594067 368.756202 216.753125 
M 202.436202 216.753125 
C 202.436202 216.753125 202.436202 216.753125 202.436202 216.753125 
C 202.436202 216.753125 202.436202 216.753125 202.436202 216.753125 
C 202.436202 216.753125 202.436202 216.753125 202.436202 216.753125 
C 202.436202 216.753125 202.436202 216.753125 202.436202 216.753125 
C 202.436202 216.753125 202.436202 216.753125 202.436202 216.753125 
C 202.436202 216.753125 202.436202 216.753125 202.436202 216.753125 
C 202.436202 216.753125 202.436202 216.753125 202.436202 216.753125 
C 202.436202 216.753125 202.436202 216.753125 202.436202 216.753125 
C 202.436202 216.753125 202.436202 216.753125 202.436202 216.753125 
C 202.436202 216.753125 202.436202 216.753125 202.436202 216.753125 
C 202.436202 216.753125 202.436202 216.753125 202.436202 216.753125 
C 202.436202 216.753125 202.436202 216.753125 202.436202 216.753125 
C 202.436202 216.753125 202.436202 216.753125 202.436202 216.753125 
C 202.436202 216.753125 202.436202 216.753125 202.436202 216.753125 
C 202.436202 216.753125 202.436202 216.753125 202.436202 216.753125 
C 202.436202 216.753125 202.436202 216.753125 202.436202 216.753125 
z
" style="fill: #ffffff"/>
   </g>
   <g id="patch_3">
    <path d="M 202.436202 87.81762 
L 247.267082 131.33502 
L 250.676928 183.454956 
L 295.960491 205.39722 
L 324.986499 263.230322 
L 254.627041 275.664405 
L 232.872548 340.238238 
L 173.665266 333.481399 
L 199.738669 219.79801 
L 120.876675 247.684573 
L 106.746633 205.134308 
L 164.382463 190.486526 
L 161.981276 139.672704 
z
" clip-path="url(#p2104129d17)" style="fill: #408ec6; opacity: 0.25; stroke: #408ec6; stroke-linejoin: miter"/>
   </g>
   <g id="matplotlib.axis_1">
    <g id="xtick_1">
     <g id="line2d_1">
      <path d="M 202.436202 216.753125 
L 202.436202 50.433125 
" clip-path="url(#p2104129d17)" style="fill: none; stroke: #808080; stroke-opacity: 0.8; stroke-linecap: square"/>
     </g>
     <g id="text_1">
      <!-- MW -->
      <g transform="translate(192.994639 38.916562) scale(0.09 -0.09)">
       <defs>
        <path id="DejaVuSans-Bold-4d" d="M 588 4666 
L 2119 4666 
L 3181 2169 
L 4250 4666 
L 5778 4666 
L 5778 0 
L 4641 0 
L 4641 3413 
L 3566 897 
L 2803 897 
L 1728 3413 
L 1728 0 
L 588 0 
L 588 4666 
z
" transform="scale(0.015625)"/>
        <path id="DejaVuSans-Bold-57" d="M 191 4666 
L 1344 4666 
L 2150 1275 
L 2950 4666 
L 4109 4666 
L 4909 1275 
L 5716 4666 
L 6859 4666 
L 5759 0 
L 4372 0 
L 3525 3547 
L 2688 0 
L 1300 0 
L 191 4666 
z
" transform="scale(0.015625)"/>
       </defs>
       <use xlink:href="#DejaVuSans-Bold-4d"/>
       <use xlink:href="#DejaVuSans-Bold-57" transform="translate(99.511719 0)"/>
      </g>
     </g>
    </g>
    <g id="xtick_2">
     <g id="line2d_2">
      <path d="M 202.436202 216.753125 
L 279.72896 69.484079 
" clip-path="url(#p2104129d17)" style="fill: none; stroke: #808080; stroke-opacity: 0.8; stroke-linecap: square"/>
     </g>
     <g id="text_2">
      <!-- AliR_C -->
      <g transform="translate(270.649615 59.445976) scale(0.09 -0.09)">
       <defs>
        <path id="DejaVuSans-Bold-41" d="M 3419 850 
L 1538 850 
L 1241 0 
L 31 0 
L 1759 4666 
L 3194 4666 
L 4922 0 
L 3713 0 
L 3419 850 
z
M 1838 1716 
L 3116 1716 
L 2478 3572 
L 1838 1716 
z
" transform="scale(0.015625)"/>
        <path id="DejaVuSans-Bold-6c" d="M 538 4863 
L 1656 4863 
L 1656 0 
L 538 0 
L 538 4863 
z
" transform="scale(0.015625)"/>
        <path id="DejaVuSans-Bold-69" d="M 538 3500 
L 1656 3500 
L 1656 0 
L 538 0 
L 538 3500 
z
M 538 4863 
L 1656 4863 
L 1656 3950 
L 538 3950 
L 538 4863 
z
" transform="scale(0.015625)"/>
        <path id="DejaVuSans-Bold-52" d="M 2297 2597 
Q 2675 2597 2839 2737 
Q 3003 2878 3003 3200 
Q 3003 3519 2839 3656 
Q 2675 3794 2297 3794 
L 1791 3794 
L 1791 2597 
L 2297 2597 
z
M 1791 1766 
L 1791 0 
L 588 0 
L 588 4666 
L 2425 4666 
Q 3347 4666 3776 4356 
Q 4206 4047 4206 3378 
Q 4206 2916 3982 2619 
Q 3759 2322 3309 2181 
Q 3556 2125 3751 1926 
Q 3947 1728 4147 1325 
L 4800 0 
L 3519 0 
L 2950 1159 
Q 2778 1509 2601 1637 
Q 2425 1766 2131 1766 
L 1791 1766 
z
" transform="scale(0.015625)"/>
        <path id="DejaVuSans-Bold-5f" d="M 3200 -916 
L 3200 -1509 
L 0 -1509 
L 0 -916 
L 3200 -916 
z
" transform="scale(0.015625)"/>
        <path id="DejaVuSans-Bold-43" d="M 4288 256 
Q 3956 84 3597 -3 
Q 3238 -91 2847 -91 
Q 1681 -91 1000 561 
Q 319 1213 319 2328 
Q 319 3447 1000 4098 
Q 1681 4750 2847 4750 
Q 3238 4750 3597 4662 
Q 3956 4575 4288 4403 
L 4288 3438 
Q 3953 3666 3628 3772 
Q 3303 3878 2944 3878 
Q 2300 3878 1931 3465 
Q 1563 3053 1563 2328 
Q 1563 1606 1931 1193 
Q 2300 781 2944 781 
Q 3303 781 3628 887 
Q 3953 994 4288 1222 
L 4288 256 
z
" transform="scale(0.015625)"/>
       </defs>
       <use xlink:href="#DejaVuSans-Bold-41"/>
       <use xlink:href="#DejaVuSans-Bold-6c" transform="translate(77.392578 0)"/>
       <use xlink:href="#DejaVuSans-Bold-69" transform="translate(111.669922 0)"/>
       <use xlink:href="#DejaVuSans-Bold-52" transform="translate(145.947266 0)"/>
       <use xlink:href="#DejaVuSans-Bold-5f" transform="translate(222.949219 0)"/>
       <use xlink:href="#DejaVuSans-Bold-43" transform="translate(272.949219 0)"/>
      </g>
     </g>
    </g>
    <g id="xtick_3">
     <g id="line2d_3">
      <path d="M 202.436202 216.753125 
L 339.314878 122.272596 
" clip-path="url(#p2104129d17)" style="fill: none; stroke: #808080; stroke-opacity: 0.8; stroke-linecap: square"/>
     </g>
     <g id="text_3">
      <!-- AroR_C -->
      <g transform="translate(333.025793 116.598518) scale(0.09 -0.09)">
       <defs>
        <path id="DejaVuSans-Bold-72" d="M 3138 2547 
Q 2991 2616 2845 2648 
Q 2700 2681 2553 2681 
Q 2122 2681 1889 2404 
Q 1656 2128 1656 1613 
L 1656 0 
L 538 0 
L 538 3500 
L 1656 3500 
L 1656 2925 
Q 1872 3269 2151 3426 
Q 2431 3584 2822 3584 
Q 2878 3584 2943 3579 
Q 3009 3575 3134 3559 
L 3138 2547 
z
" transform="scale(0.015625)"/>
        <path id="DejaVuSans-Bold-6f" d="M 2203 2784 
Q 1831 2784 1636 2517 
Q 1441 2250 1441 1747 
Q 1441 1244 1636 976 
Q 1831 709 2203 709 
Q 2569 709 2762 976 
Q 2956 1244 2956 1747 
Q 2956 2250 2762 2517 
Q 2569 2784 2203 2784 
z
M 2203 3584 
Q 3106 3584 3614 3096 
Q 4122 2609 4122 1747 
Q 4122 884 3614 396 
Q 3106 -91 2203 -91 
Q 1297 -91 786 396 
Q 275 884 275 1747 
Q 275 2609 786 3096 
Q 1297 3584 2203 3584 
z
" transform="scale(0.015625)"/>
       </defs>
       <use xlink:href="#DejaVuSans-Bold-41"/>
       <use xlink:href="#DejaVuSans-Bold-72" transform="translate(77.392578 0)"/>
       <use xlink:href="#DejaVuSans-Bold-6f" transform="translate(126.708984 0)"/>
       <use xlink:href="#DejaVuSans-Bold-52" transform="translate(195.410156 0)"/>
       <use xlink:href="#DejaVuSans-Bold-5f" transform="translate(272.412109 0)"/>
       <use xlink:href="#DejaVuSans-Bold-43" transform="translate(322.412109 0)"/>
      </g>
     </g>
    </g>
    <g id="xtick_4">
     <g id="line2d_4">
      <path d="M 202.436202 216.753125 
L 367.543542 196.705464 
" clip-path="url(#p2104129d17)" style="fill: none; stroke: #808080; stroke-opacity: 0.8; stroke-linecap: square"/>
     </g>
     <g id="text_4">
      <!-- ChiA_C -->
      <g transform="translate(364.357638 197.376232) scale(0.09 -0.09)">
       <defs>
        <path id="DejaVuSans-Bold-68" d="M 4056 2131 
L 4056 0 
L 2931 0 
L 2931 347 
L 2931 1625 
Q 2931 2084 2911 2256 
Q 2891 2428 2841 2509 
Q 2775 2619 2662 2680 
Q 2550 2741 2406 2741 
Q 2056 2741 1856 2470 
Q 1656 2200 1656 1722 
L 1656 0 
L 538 0 
L 538 4863 
L 1656 4863 
L 1656 2988 
Q 1909 3294 2193 3439 
Q 2478 3584 2822 3584 
Q 3428 3584 3742 3212 
Q 4056 2841 4056 2131 
z
" transform="scale(0.015625)"/>
       </defs>
       <use xlink:href="#DejaVuSans-Bold-43"/>
       <use xlink:href="#DejaVuSans-Bold-68" transform="translate(73.388672 0)"/>
       <use xlink:href="#DejaVuSans-Bold-69" transform="translate(144.580078 0)"/>
       <use xlink:href="#DejaVuSans-Bold-41" transform="translate(178.857422 0)"/>
       <use xlink:href="#DejaVuSans-Bold-5f" transform="translate(256.25 0)"/>
       <use xlink:href="#DejaVuSans-Bold-43" transform="translate(306.25 0)"/>
      </g>
     </g>
    </g>
    <g id="xtick_5">
     <g id="line2d_5">
      <path d="M 202.436202 216.753125 
L 357.948103 275.73101 
" clip-path="url(#p2104129d17)" style="fill: none; stroke: #808080; stroke-opacity: 0.8; stroke-linecap: square"/>
     </g>
     <g id="text_5">
      <!-- SA -->
      <g transform="translate(364.315049 283.178916) scale(0.09 -0.09)">
       <defs>
        <path id="DejaVuSans-Bold-53" d="M 3834 4519 
L 3834 3531 
Q 3450 3703 3084 3790 
Q 2719 3878 2394 3878 
Q 1963 3878 1756 3759 
Q 1550 3641 1550 3391 
Q 1550 3203 1689 3098 
Q 1828 2994 2194 2919 
L 2706 2816 
Q 3484 2659 3812 2340 
Q 4141 2022 4141 1434 
Q 4141 663 3683 286 
Q 3225 -91 2284 -91 
Q 1841 -91 1394 -6 
Q 947 78 500 244 
L 500 1259 
Q 947 1022 1364 901 
Q 1781 781 2169 781 
Q 2563 781 2772 912 
Q 2981 1044 2981 1288 
Q 2981 1506 2839 1625 
Q 2697 1744 2272 1838 
L 1806 1941 
Q 1106 2091 782 2419 
Q 459 2747 459 3303 
Q 459 4000 909 4375 
Q 1359 4750 2203 4750 
Q 2588 4750 2994 4692 
Q 3400 4634 3834 4519 
z
" transform="scale(0.015625)"/>
       </defs>
       <use xlink:href="#DejaVuSans-Bold-53"/>
       <use xlink:href="#DejaVuSans-Bold-41" transform="translate(72.021484 0)"/>
      </g>
     </g>
    </g>
    <g id="xtick_6">
     <g id="line2d_6">
      <path d="M 202.436202 216.753125 
L 312.726762 341.245433 
" clip-path="url(#p2104129d17)" style="fill: none; stroke: #808080; stroke-opacity: 0.8; stroke-linecap: square"/>
     </g>
     <g id="text_6">
      <!-- NHOH_C -->
      <g transform="translate(301.334386 354.003411) scale(0.09 -0.09)">
       <defs>
        <path id="DejaVuSans-Bold-4e" d="M 588 4666 
L 1931 4666 
L 3628 1466 
L 3628 4666 
L 4769 4666 
L 4769 0 
L 3425 0 
L 1728 3200 
L 1728 0 
L 588 0 
L 588 4666 
z
" transform="scale(0.015625)"/>
        <path id="DejaVuSans-Bold-48" d="M 588 4666 
L 1791 4666 
L 1791 2888 
L 3566 2888 
L 3566 4666 
L 4769 4666 
L 4769 0 
L 3566 0 
L 3566 1978 
L 1791 1978 
L 1791 0 
L 588 0 
L 588 4666 
z
" transform="scale(0.015625)"/>
        <path id="DejaVuSans-Bold-4f" d="M 2719 3878 
Q 2169 3878 1866 3472 
Q 1563 3066 1563 2328 
Q 1563 1594 1866 1187 
Q 2169 781 2719 781 
Q 3272 781 3575 1187 
Q 3878 1594 3878 2328 
Q 3878 3066 3575 3472 
Q 3272 3878 2719 3878 
z
M 2719 4750 
Q 3844 4750 4481 4106 
Q 5119 3463 5119 2328 
Q 5119 1197 4481 553 
Q 3844 -91 2719 -91 
Q 1597 -91 958 553 
Q 319 1197 319 2328 
Q 319 3463 958 4106 
Q 1597 4750 2719 4750 
z
" transform="scale(0.015625)"/>
       </defs>
       <use xlink:href="#DejaVuSans-Bold-4e"/>
       <use xlink:href="#DejaVuSans-Bold-48" transform="translate(83.691406 0)"/>
       <use xlink:href="#DejaVuSans-Bold-4f" transform="translate(167.382812 0)"/>
       <use xlink:href="#DejaVuSans-Bold-48" transform="translate(252.392578 0)"/>
       <use xlink:href="#DejaVuSans-Bold-5f" transform="translate(336.083984 0)"/>
       <use xlink:href="#DejaVuSans-Bold-43" transform="translate(386.083984 0)"/>
      </g>
     </g>
    </g>
    <g id="xtick_7">
     <g id="line2d_7">
      <path d="M 202.436202 216.753125 
L 242.239183 378.240168 
" clip-path="url(#p2104129d17)" style="fill: none; stroke: #808080; stroke-opacity: 0.8; stroke-linecap: square"/>
     </g>
     <g id="text_7">
      <!-- HetA_C -->
      <g transform="translate(227.585384 394.112182) scale(0.09 -0.09)">
       <defs>
        <path id="DejaVuSans-Bold-65" d="M 4031 1759 
L 4031 1441 
L 1416 1441 
Q 1456 1047 1700 850 
Q 1944 653 2381 653 
Q 2734 653 3104 758 
Q 3475 863 3866 1075 
L 3866 213 
Q 3469 63 3072 -14 
Q 2675 -91 2278 -91 
Q 1328 -91 801 392 
Q 275 875 275 1747 
Q 275 2603 792 3093 
Q 1309 3584 2216 3584 
Q 3041 3584 3536 3087 
Q 4031 2591 4031 1759 
z
M 2881 2131 
Q 2881 2450 2695 2645 
Q 2509 2841 2209 2841 
Q 1884 2841 1681 2658 
Q 1478 2475 1428 2131 
L 2881 2131 
z
" transform="scale(0.015625)"/>
        <path id="DejaVuSans-Bold-74" d="M 1759 4494 
L 1759 3500 
L 2913 3500 
L 2913 2700 
L 1759 2700 
L 1759 1216 
Q 1759 972 1856 886 
Q 1953 800 2241 800 
L 2816 800 
L 2816 0 
L 1856 0 
Q 1194 0 917 276 
Q 641 553 641 1216 
L 641 2700 
L 84 2700 
L 84 3500 
L 641 3500 
L 641 4494 
L 1759 4494 
z
" transform="scale(0.015625)"/>
       </defs>
       <use xlink:href="#DejaVuSans-Bold-48"/>
       <use xlink:href="#DejaVuSans-Bold-65" transform="translate(83.691406 0)"/>
       <use xlink:href="#DejaVuSans-Bold-74" transform="translate(151.513672 0)"/>
       <use xlink:href="#DejaVuSans-Bold-41" transform="translate(199.316406 0)"/>
       <use xlink:href="#DejaVuSans-Bold-5f" transform="translate(276.708984 0)"/>
       <use xlink:href="#DejaVuSans-Bold-43" transform="translate(326.708984 0)"/>
      </g>
     </g>
    </g>
    <g id="xtick_8">
     <g id="line2d_8">
      <path d="M 202.436202 216.753125 
L 162.63322 378.240168 
" clip-path="url(#p2104129d17)" style="fill: none; stroke: #808080; stroke-opacity: 0.8; stroke-linecap: square"/>
     </g>
     <g id="text_8">
      <!-- RotB_C -->
      <g transform="translate(141.592879 394.112182) scale(0.09 -0.09)">
       <defs>
        <path id="DejaVuSans-Bold-42" d="M 2456 2859 
Q 2741 2859 2887 2984 
Q 3034 3109 3034 3353 
Q 3034 3594 2887 3720 
Q 2741 3847 2456 3847 
L 1791 3847 
L 1791 2859 
L 2456 2859 
z
M 2497 819 
Q 2859 819 3042 972 
Q 3225 1125 3225 1434 
Q 3225 1738 3044 1889 
Q 2863 2041 2497 2041 
L 1791 2041 
L 1791 819 
L 2497 819 
z
M 3616 2497 
Q 4003 2384 4215 2081 
Q 4428 1778 4428 1338 
Q 4428 663 3972 331 
Q 3516 0 2584 0 
L 588 0 
L 588 4666 
L 2394 4666 
Q 3366 4666 3802 4372 
Q 4238 4078 4238 3431 
Q 4238 3091 4078 2852 
Q 3919 2613 3616 2497 
z
" transform="scale(0.015625)"/>
       </defs>
       <use xlink:href="#DejaVuSans-Bold-52"/>
       <use xlink:href="#DejaVuSans-Bold-6f" transform="translate(77.001953 0)"/>
       <use xlink:href="#DejaVuSans-Bold-74" transform="translate(145.703125 0)"/>
       <use xlink:href="#DejaVuSans-Bold-42" transform="translate(193.505859 0)"/>
       <use xlink:href="#DejaVuSans-Bold-5f" transform="translate(269.726562 0)"/>
       <use xlink:href="#DejaVuSans-Bold-43" transform="translate(319.726562 0)"/>
      </g>
     </g>
    </g>
    <g id="xtick_9">
     <g id="line2d_9">
      <path d="M 202.436202 216.753125 
L 92.145641 341.245433 
" clip-path="url(#p2104129d17)" style="fill: none; stroke: #808080; stroke-opacity: 0.8; stroke-linecap: square"/>
     </g>
     <g id="text_9">
      <!-- BriA_C -->
      <g transform="translate(66.635205 354.082864) scale(0.09 -0.09)">
       <use xlink:href="#DejaVuSans-Bold-42"/>
       <use xlink:href="#DejaVuSans-Bold-72" transform="translate(76.220703 0)"/>
       <use xlink:href="#DejaVuSans-Bold-69" transform="translate(125.537109 0)"/>
       <use xlink:href="#DejaVuSans-Bold-41" transform="translate(159.814453 0)"/>
       <use xlink:href="#DejaVuSans-Bold-5f" transform="translate(237.207031 0)"/>
       <use xlink:href="#DejaVuSans-Bold-43" transform="translate(287.207031 0)"/>
      </g>
     </g>
    </g>
    <g id="xtick_10">
     <g id="line2d_10">
      <path d="M 202.436202 216.753125 
L 46.9243 275.73101 
" clip-path="url(#p2104129d17)" style="fill: none; stroke: #808080; stroke-opacity: 0.8; stroke-linecap: square"/>
     </g>
     <g id="text_10">
      <!-- HBD_C -->
      <g transform="translate(17.35001 282.974306) scale(0.09 -0.09)">
       <defs>
        <path id="DejaVuSans-Bold-44" d="M 1791 3756 
L 1791 909 
L 2222 909 
Q 2959 909 3348 1275 
Q 3738 1641 3738 2338 
Q 3738 3031 3350 3393 
Q 2963 3756 2222 3756 
L 1791 3756 
z
M 588 4666 
L 1856 4666 
Q 2919 4666 3439 4514 
Q 3959 4363 4331 4000 
Q 4659 3684 4818 3271 
Q 4978 2859 4978 2338 
Q 4978 1809 4818 1395 
Q 4659 981 4331 666 
Q 3956 303 3431 151 
Q 2906 0 1856 0 
L 588 0 
L 588 4666 
z
" transform="scale(0.015625)"/>
       </defs>
       <use xlink:href="#DejaVuSans-Bold-48"/>
       <use xlink:href="#DejaVuSans-Bold-42" transform="translate(83.691406 0)"/>
       <use xlink:href="#DejaVuSans-Bold-44" transform="translate(159.912109 0)"/>
       <use xlink:href="#DejaVuSans-Bold-5f" transform="translate(242.919922 0)"/>
       <use xlink:href="#DejaVuSans-Bold-43" transform="translate(292.919922 0)"/>
      </g>
     </g>
    </g>
    <g id="xtick_11">
     <g id="line2d_11">
      <path d="M 202.436202 216.753125 
L 37.328862 196.705464 
" clip-path="url(#p2104129d17)" style="fill: none; stroke: #808080; stroke-opacity: 0.8; stroke-linecap: square"/>
     </g>
     <g id="text_11">
      <!-- HBA_C -->
      <g transform="translate(7.2 197.296779) scale(0.09 -0.09)">
       <use xlink:href="#DejaVuSans-Bold-48"/>
       <use xlink:href="#DejaVuSans-Bold-42" transform="translate(83.691406 0)"/>
       <use xlink:href="#DejaVuSans-Bold-41" transform="translate(159.912109 0)"/>
       <use xlink:href="#DejaVuSans-Bold-5f" transform="translate(237.304688 0)"/>
       <use xlink:href="#DejaVuSans-Bold-43" transform="translate(287.304688 0)"/>
      </g>
     </g>
    </g>
    <g id="xtick_12">
     <g id="line2d_12">
      <path d="M 202.436202 216.753125 
L 65.557525 122.272596 
" clip-path="url(#p2104129d17)" style="fill: none; stroke: #808080; stroke-opacity: 0.8; stroke-linecap: square"/>
     </g>
     <g id="text_12">
      <!-- FusedR_C -->
      <g transform="translate(30.014188 116.677971) scale(0.09 -0.09)">
       <defs>
        <path id="DejaVuSans-Bold-46" d="M 588 4666 
L 3834 4666 
L 3834 3756 
L 1791 3756 
L 1791 2888 
L 3713 2888 
L 3713 1978 
L 1791 1978 
L 1791 0 
L 588 0 
L 588 4666 
z
" transform="scale(0.015625)"/>
        <path id="DejaVuSans-Bold-75" d="M 500 1363 
L 500 3500 
L 1625 3500 
L 1625 3150 
Q 1625 2866 1622 2436 
Q 1619 2006 1619 1863 
Q 1619 1441 1641 1255 
Q 1663 1069 1716 984 
Q 1784 875 1895 815 
Q 2006 756 2150 756 
Q 2500 756 2700 1025 
Q 2900 1294 2900 1772 
L 2900 3500 
L 4019 3500 
L 4019 0 
L 2900 0 
L 2900 506 
Q 2647 200 2364 54 
Q 2081 -91 1741 -91 
Q 1134 -91 817 281 
Q 500 653 500 1363 
z
" transform="scale(0.015625)"/>
        <path id="DejaVuSans-Bold-73" d="M 3272 3391 
L 3272 2541 
Q 2913 2691 2578 2766 
Q 2244 2841 1947 2841 
Q 1628 2841 1473 2761 
Q 1319 2681 1319 2516 
Q 1319 2381 1436 2309 
Q 1553 2238 1856 2203 
L 2053 2175 
Q 2913 2066 3209 1816 
Q 3506 1566 3506 1031 
Q 3506 472 3093 190 
Q 2681 -91 1863 -91 
Q 1516 -91 1145 -36 
Q 775 19 384 128 
L 384 978 
Q 719 816 1070 734 
Q 1422 653 1784 653 
Q 2113 653 2278 743 
Q 2444 834 2444 1013 
Q 2444 1163 2330 1236 
Q 2216 1309 1875 1350 
L 1678 1375 
Q 931 1469 631 1722 
Q 331 1975 331 2491 
Q 331 3047 712 3315 
Q 1094 3584 1881 3584 
Q 2191 3584 2531 3537 
Q 2872 3491 3272 3391 
z
" transform="scale(0.015625)"/>
        <path id="DejaVuSans-Bold-64" d="M 2919 2988 
L 2919 4863 
L 4044 4863 
L 4044 0 
L 2919 0 
L 2919 506 
Q 2688 197 2409 53 
Q 2131 -91 1766 -91 
Q 1119 -91 703 423 
Q 288 938 288 1747 
Q 288 2556 703 3070 
Q 1119 3584 1766 3584 
Q 2128 3584 2408 3439 
Q 2688 3294 2919 2988 
z
M 2181 722 
Q 2541 722 2730 984 
Q 2919 1247 2919 1747 
Q 2919 2247 2730 2509 
Q 2541 2772 2181 2772 
Q 1825 2772 1636 2509 
Q 1447 2247 1447 1747 
Q 1447 1247 1636 984 
Q 1825 722 2181 722 
z
" transform="scale(0.015625)"/>
       </defs>
       <use xlink:href="#DejaVuSans-Bold-46"/>
       <use xlink:href="#DejaVuSans-Bold-75" transform="translate(63.310547 0)"/>
       <use xlink:href="#DejaVuSans-Bold-73" transform="translate(134.501953 0)"/>
       <use xlink:href="#DejaVuSans-Bold-65" transform="translate(194.023438 0)"/>
       <use xlink:href="#DejaVuSans-Bold-64" transform="translate(261.845703 0)"/>
       <use xlink:href="#DejaVuSans-Bold-52" transform="translate(333.427734 0)"/>
       <use xlink:href="#DejaVuSans-Bold-5f" transform="translate(410.429688 0)"/>
       <use xlink:href="#DejaVuSans-Bold-43" transform="translate(460.429688 0)"/>
      </g>
     </g>
    </g>
    <g id="xtick_13">
     <g id="line2d_13">
      <path d="M 202.436202 216.753125 
L 125.143444 69.484079 
" clip-path="url(#p2104129d17)" style="fill: none; stroke: #808080; stroke-opacity: 0.8; stroke-linecap: square"/>
     </g>
     <g id="text_13">
      <!-- LogP_C -->
      <g transform="translate(100.606382 59.366523) scale(0.09 -0.09)">
       <defs>
        <path id="DejaVuSans-Bold-4c" d="M 588 4666 
L 1791 4666 
L 1791 909 
L 3903 909 
L 3903 0 
L 588 0 
L 588 4666 
z
" transform="scale(0.015625)"/>
        <path id="DejaVuSans-Bold-67" d="M 2919 594 
Q 2688 288 2409 144 
Q 2131 0 1766 0 
Q 1125 0 706 504 
Q 288 1009 288 1791 
Q 288 2575 706 3076 
Q 1125 3578 1766 3578 
Q 2131 3578 2409 3434 
Q 2688 3291 2919 2981 
L 2919 3500 
L 4044 3500 
L 4044 353 
Q 4044 -491 3511 -936 
Q 2978 -1381 1966 -1381 
Q 1638 -1381 1331 -1331 
Q 1025 -1281 716 -1178 
L 716 -306 
Q 1009 -475 1290 -558 
Q 1572 -641 1856 -641 
Q 2406 -641 2662 -400 
Q 2919 -159 2919 353 
L 2919 594 
z
M 2181 2772 
Q 1834 2772 1640 2515 
Q 1447 2259 1447 1791 
Q 1447 1309 1634 1061 
Q 1822 813 2181 813 
Q 2531 813 2725 1069 
Q 2919 1325 2919 1791 
Q 2919 2259 2725 2515 
Q 2531 2772 2181 2772 
z
" transform="scale(0.015625)"/>
        <path id="DejaVuSans-Bold-50" d="M 588 4666 
L 2584 4666 
Q 3475 4666 3951 4270 
Q 4428 3875 4428 3144 
Q 4428 2409 3951 2014 
Q 3475 1619 2584 1619 
L 1791 1619 
L 1791 0 
L 588 0 
L 588 4666 
z
M 1791 3794 
L 1791 2491 
L 2456 2491 
Q 2806 2491 2997 2661 
Q 3188 2831 3188 3144 
Q 3188 3456 2997 3625 
Q 2806 3794 2456 3794 
L 1791 3794 
z
" transform="scale(0.015625)"/>
       </defs>
       <use xlink:href="#DejaVuSans-Bold-4c"/>
       <use xlink:href="#DejaVuSans-Bold-6f" transform="translate(63.720703 0)"/>
       <use xlink:href="#DejaVuSans-Bold-67" transform="translate(132.421875 0)"/>
       <use xlink:href="#DejaVuSans-Bold-50" transform="translate(204.003906 0)"/>
       <use xlink:href="#DejaVuSans-Bold-5f" transform="translate(277.294922 0)"/>
       <use xlink:href="#DejaVuSans-Bold-43" transform="translate(327.294922 0)"/>
      </g>
     </g>
    </g>
   </g>
   <g id="matplotlib.axis_2">
    <g id="ytick_1">
     <g id="line2d_14">
      <path d="M 202.436202 216.753125 
C 202.436202 216.753125 202.436202 216.753125 202.436202 216.753125 
C 202.436202 216.753125 202.436202 216.753125 202.436202 216.753125 
C 202.436202 216.753125 202.436202 216.753125 202.436202 216.753125 
C 202.436202 216.753125 202.436202 216.753125 202.436202 216.753125 
C 202.436202 216.753125 202.436202 216.753125 202.436202 216.753125 
C 202.436202 216.753125 202.436202 216.753125 202.436202 216.753125 
C 202.436202 216.753125 202.436202 216.753125 202.436202 216.753125 
C 202.436202 216.753125 202.436202 216.753125 202.436202 216.753125 
C 202.436202 216.753125 202.436202 216.753125 202.436202 216.753125 
C 202.436202 216.753125 202.436202 216.753125 202.436202 216.753125 
C 202.436202 216.753125 202.436202 216.753125 202.436202 216.753125 
C 202.436202 216.753125 202.436202 216.753125 202.436202 216.753125 
C 202.436202 216.753125 202.436202 216.753125 202.436202 216.753125 
C 202.436202 216.753125 202.436202 216.753125 202.436202 216.753125 
C 202.436202 216.753125 202.436202 216.753125 202.436202 216.753125 
C 202.436202 216.753125 202.436202 216.753125 202.436202 216.753125 
" clip-path="url(#p2104129d17)" style="fill: none; stroke: #808080; stroke-opacity: 0.8; stroke-linecap: square"/>
     </g>
     <g id="text_14">
      <!-- 0% -->
      <g transform="translate(202.436202 215.297344) scale(0.07 -0.07)">
       <defs>
        <path id="DejaVuSans-30" d="M 2034 4250 
Q 1547 4250 1301 3770 
Q 1056 3291 1056 2328 
Q 1056 1369 1301 889 
Q 1547 409 2034 409 
Q 2525 409 2770 889 
Q 3016 1369 3016 2328 
Q 3016 3291 2770 3770 
Q 2525 4250 2034 4250 
z
M 2034 4750 
Q 2819 4750 3233 4129 
Q 3647 3509 3647 2328 
Q 3647 1150 3233 529 
Q 2819 -91 2034 -91 
Q 1250 -91 836 529 
Q 422 1150 422 2328 
Q 422 3509 836 4129 
Q 1250 4750 2034 4750 
z
" transform="scale(0.015625)"/>
        <path id="DejaVuSans-25" d="M 4653 2053 
Q 4381 2053 4226 1822 
Q 4072 1591 4072 1178 
Q 4072 772 4226 539 
Q 4381 306 4653 306 
Q 4919 306 5073 539 
Q 5228 772 5228 1178 
Q 5228 1588 5073 1820 
Q 4919 2053 4653 2053 
z
M 4653 2450 
Q 5147 2450 5437 2106 
Q 5728 1763 5728 1178 
Q 5728 594 5436 251 
Q 5144 -91 4653 -91 
Q 4153 -91 3862 251 
Q 3572 594 3572 1178 
Q 3572 1766 3864 2108 
Q 4156 2450 4653 2450 
z
M 1428 4353 
Q 1159 4353 1004 4120 
Q 850 3888 850 3481 
Q 850 3069 1003 2837 
Q 1156 2606 1428 2606 
Q 1700 2606 1854 2837 
Q 2009 3069 2009 3481 
Q 2009 3884 1853 4118 
Q 1697 4353 1428 4353 
z
M 4250 4750 
L 4750 4750 
L 1831 -91 
L 1331 -91 
L 4250 4750 
z
M 1428 4750 
Q 1922 4750 2215 4408 
Q 2509 4066 2509 3481 
Q 2509 2891 2217 2550 
Q 1925 2209 1428 2209 
Q 931 2209 642 2551 
Q 353 2894 353 3481 
Q 353 4063 643 4406 
Q 934 4750 1428 4750 
z
" transform="scale(0.015625)"/>
       </defs>
       <use xlink:href="#DejaVuSans-30"/>
       <use xlink:href="#DejaVuSans-25" transform="translate(63.623047 0)"/>
      </g>
     </g>
    </g>
    <g id="ytick_2">
     <g id="line2d_15">
      <path d="M 202.436202 183.489125 
C 206.80439 183.489125 211.130103 184.349563 215.165783 186.021196 
C 219.201463 187.69283 222.868626 190.143149 225.957402 193.231925 
C 229.046177 196.320701 231.496497 199.987863 233.16813 204.023543 
C 234.839764 208.059223 235.700202 212.384937 235.700202 216.753125 
C 235.700202 221.121313 234.839764 225.447027 233.16813 229.482707 
C 231.496497 233.518387 229.046177 237.185549 225.957402 240.274325 
C 222.868626 243.363101 219.201463 245.81342 215.165783 247.485054 
C 211.130103 249.156687 206.80439 250.017125 202.436202 250.017125 
C 198.068013 250.017125 193.7423 249.156687 189.70662 247.485054 
C 185.67094 245.81342 182.003777 243.363101 178.915002 240.274325 
C 175.826226 237.185549 173.375906 233.518387 171.704273 229.482707 
C 170.03264 225.447027 169.172202 221.121313 169.172202 216.753125 
C 169.172202 212.384937 170.03264 208.059223 171.704273 204.023543 
C 173.375906 199.987863 175.826226 196.320701 178.915002 193.231925 
C 182.003777 190.143149 185.67094 187.69283 189.70662 186.021196 
C 193.7423 184.349563 198.068013 183.489125 202.436202 183.489125 
" clip-path="url(#p2104129d17)" style="fill: none; stroke: #808080; stroke-opacity: 0.8; stroke-linecap: square"/>
     </g>
     <g id="text_15">
      <!-- 20% -->
      <g transform="translate(202.436202 182.033344) scale(0.07 -0.07)">
       <defs>
        <path id="DejaVuSans-32" d="M 1228 531 
L 3431 531 
L 3431 0 
L 469 0 
L 469 531 
Q 828 903 1448 1529 
Q 2069 2156 2228 2338 
Q 2531 2678 2651 2914 
Q 2772 3150 2772 3378 
Q 2772 3750 2511 3984 
Q 2250 4219 1831 4219 
Q 1534 4219 1204 4116 
Q 875 4013 500 3803 
L 500 4441 
Q 881 4594 1212 4672 
Q 1544 4750 1819 4750 
Q 2544 4750 2975 4387 
Q 3406 4025 3406 3419 
Q 3406 3131 3298 2873 
Q 3191 2616 2906 2266 
Q 2828 2175 2409 1742 
Q 1991 1309 1228 531 
z
" transform="scale(0.015625)"/>
       </defs>
       <use xlink:href="#DejaVuSans-32"/>
       <use xlink:href="#DejaVuSans-30" transform="translate(63.623047 0)"/>
       <use xlink:href="#DejaVuSans-25" transform="translate(127.246094 0)"/>
      </g>
     </g>
    </g>
    <g id="ytick_3">
     <g id="line2d_16">
      <path d="M 202.436202 150.225125 
C 211.172579 150.225125 219.824005 151.946001 227.895365 155.289267 
C 235.966725 158.632534 243.30105 163.533174 249.478602 169.710725 
C 255.656153 175.888276 260.556793 183.222602 263.900059 191.293962 
C 267.243326 199.365321 268.964202 208.016748 268.964202 216.753125 
C 268.964202 225.489502 267.243326 234.140929 263.900059 242.212288 
C 260.556793 250.283648 255.656153 257.617974 249.478602 263.795525 
C 243.30105 269.973076 235.966725 274.873716 227.895365 278.216983 
C 219.824005 281.560249 211.172579 283.281125 202.436202 283.281125 
C 193.699825 283.281125 185.048398 281.560249 176.977038 278.216983 
C 168.905678 274.873716 161.571353 269.973076 155.393802 263.795525 
C 149.21625 257.617974 144.315611 250.283648 140.972344 242.212288 
C 137.629077 234.140929 135.908202 225.489502 135.908202 216.753125 
C 135.908202 208.016748 137.629077 199.365321 140.972344 191.293962 
C 144.315611 183.222602 149.21625 175.888276 155.393802 169.710725 
C 161.571353 163.533174 168.905678 158.632534 176.977038 155.289267 
C 185.048398 151.946001 193.699825 150.225125 202.436202 150.225125 
" clip-path="url(#p2104129d17)" style="fill: none; stroke: #808080; stroke-opacity: 0.8; stroke-linecap: square"/>
     </g>
     <g id="text_16">
      <!-- 40% -->
      <g transform="translate(202.436202 148.769344) scale(0.07 -0.07)">
       <defs>
        <path id="DejaVuSans-34" d="M 2419 4116 
L 825 1625 
L 2419 1625 
L 2419 4116 
z
M 2253 4666 
L 3047 4666 
L 3047 1625 
L 3713 1625 
L 3713 1100 
L 3047 1100 
L 3047 0 
L 2419 0 
L 2419 1100 
L 313 1100 
L 313 1709 
L 2253 4666 
z
" transform="scale(0.015625)"/>
       </defs>
       <use xlink:href="#DejaVuSans-34"/>
       <use xlink:href="#DejaVuSans-30" transform="translate(63.623047 0)"/>
       <use xlink:href="#DejaVuSans-25" transform="translate(127.246094 0)"/>
      </g>
     </g>
    </g>
    <g id="ytick_4">
     <g id="line2d_17">
      <path d="M 202.436202 116.961125 
C 215.540767 116.961125 228.517907 119.542439 240.624947 124.557339 
C 252.731986 129.572239 263.733475 136.923198 272.999802 146.189525 
C 282.266129 155.455852 289.617088 166.45734 294.631988 178.56438 
C 299.646888 190.67142 302.228202 203.64856 302.228202 216.753125 
C 302.228202 229.85769 299.646888 242.83483 294.631988 254.94187 
C 289.617088 267.04891 282.266129 278.050398 272.999802 287.316725 
C 263.733475 296.583052 252.731986 303.934011 240.624947 308.948911 
C 228.517907 313.963811 215.540767 316.545125 202.436202 316.545125 
C 189.331636 316.545125 176.354496 313.963811 164.247457 308.948911 
C 152.140417 303.934011 141.138929 296.583052 131.872602 287.316725 
C 122.606275 278.050398 115.255315 267.04891 110.240415 254.94187 
C 105.225515 242.83483 102.644202 229.85769 102.644202 216.753125 
C 102.644202 203.64856 105.225515 190.67142 110.240415 178.56438 
C 115.255315 166.45734 122.606275 155.455852 131.872602 146.189525 
C 141.138929 136.923198 152.140417 129.572239 164.247457 124.557339 
C 176.354496 119.542439 189.331636 116.961125 202.436202 116.961125 
" clip-path="url(#p2104129d17)" style="fill: none; stroke: #808080; stroke-opacity: 0.8; stroke-linecap: square"/>
     </g>
     <g id="text_17">
      <!-- 60% -->
      <g transform="translate(202.436202 115.505344) scale(0.07 -0.07)">
       <defs>
        <path id="DejaVuSans-36" d="M 2113 2584 
Q 1688 2584 1439 2293 
Q 1191 2003 1191 1497 
Q 1191 994 1439 701 
Q 1688 409 2113 409 
Q 2538 409 2786 701 
Q 3034 994 3034 1497 
Q 3034 2003 2786 2293 
Q 2538 2584 2113 2584 
z
M 3366 4563 
L 3366 3988 
Q 3128 4100 2886 4159 
Q 2644 4219 2406 4219 
Q 1781 4219 1451 3797 
Q 1122 3375 1075 2522 
Q 1259 2794 1537 2939 
Q 1816 3084 2150 3084 
Q 2853 3084 3261 2657 
Q 3669 2231 3669 1497 
Q 3669 778 3244 343 
Q 2819 -91 2113 -91 
Q 1303 -91 875 529 
Q 447 1150 447 2328 
Q 447 3434 972 4092 
Q 1497 4750 2381 4750 
Q 2619 4750 2861 4703 
Q 3103 4656 3366 4563 
z
" transform="scale(0.015625)"/>
       </defs>
       <use xlink:href="#DejaVuSans-36"/>
       <use xlink:href="#DejaVuSans-30" transform="translate(63.623047 0)"/>
       <use xlink:href="#DejaVuSans-25" transform="translate(127.246094 0)"/>
      </g>
     </g>
    </g>
    <g id="ytick_5">
     <g id="line2d_18">
      <path d="M 202.436202 83.697125 
C 219.908956 83.697125 237.211809 87.138877 253.354528 93.82541 
C 269.497248 100.511943 284.165899 110.313222 296.521002 122.668325 
C 308.876104 135.023428 318.677383 149.692079 325.363917 165.834798 
C 332.05045 181.977518 335.492202 199.280371 335.492202 216.753125 
C 335.492202 234.225879 332.05045 251.528732 325.363917 267.671452 
C 318.677383 283.814171 308.876104 298.482822 296.521002 310.837925 
C 284.165899 323.193028 269.497248 332.994307 253.354528 339.68084 
C 237.211809 346.367373 219.908956 349.809125 202.436202 349.809125 
C 184.963448 349.809125 167.660595 346.367373 151.517875 339.68084 
C 135.375155 332.994307 120.706505 323.193028 108.351402 310.837925 
C 95.996299 298.482822 86.19502 283.814171 79.508487 267.671452 
C 72.821953 251.528732 69.380202 234.225879 69.380202 216.753125 
C 69.380202 199.280371 72.821953 181.977518 79.508487 165.834798 
C 86.19502 149.692079 95.996299 135.023428 108.351402 122.668325 
C 120.706505 110.313222 135.375155 100.511943 151.517875 93.82541 
C 167.660595 87.138877 184.963448 83.697125 202.436202 83.697125 
" clip-path="url(#p2104129d17)" style="fill: none; stroke: #808080; stroke-opacity: 0.8; stroke-linecap: square"/>
     </g>
     <g id="text_18">
      <!-- 80% -->
      <g transform="translate(202.436202 82.241344) scale(0.07 -0.07)">
       <defs>
        <path id="DejaVuSans-38" d="M 2034 2216 
Q 1584 2216 1326 1975 
Q 1069 1734 1069 1313 
Q 1069 891 1326 650 
Q 1584 409 2034 409 
Q 2484 409 2743 651 
Q 3003 894 3003 1313 
Q 3003 1734 2745 1975 
Q 2488 2216 2034 2216 
z
M 1403 2484 
Q 997 2584 770 2862 
Q 544 3141 544 3541 
Q 544 4100 942 4425 
Q 1341 4750 2034 4750 
Q 2731 4750 3128 4425 
Q 3525 4100 3525 3541 
Q 3525 3141 3298 2862 
Q 3072 2584 2669 2484 
Q 3125 2378 3379 2068 
Q 3634 1759 3634 1313 
Q 3634 634 3220 271 
Q 2806 -91 2034 -91 
Q 1263 -91 848 271 
Q 434 634 434 1313 
Q 434 1759 690 2068 
Q 947 2378 1403 2484 
z
M 1172 3481 
Q 1172 3119 1398 2916 
Q 1625 2713 2034 2713 
Q 2441 2713 2670 2916 
Q 2900 3119 2900 3481 
Q 2900 3844 2670 4047 
Q 2441 4250 2034 4250 
Q 1625 4250 1398 4047 
Q 1172 3844 1172 3481 
z
" transform="scale(0.015625)"/>
       </defs>
       <use xlink:href="#DejaVuSans-38"/>
       <use xlink:href="#DejaVuSans-30" transform="translate(63.623047 0)"/>
       <use xlink:href="#DejaVuSans-25" transform="translate(127.246094 0)"/>
      </g>
     </g>
    </g>
    <g id="ytick_6">
     <g id="line2d_19">
      <path d="M 202.436202 50.433125 
C 224.277144 50.433125 245.905711 54.735314 266.08411 63.093481 
C 286.26251 71.451648 304.598323 83.703247 320.042202 99.147125 
C 335.48608 114.591004 347.737679 132.926817 356.095846 153.105217 
C 364.454012 173.283616 368.756202 194.912183 368.756202 216.753125 
C 368.756202 238.594067 364.454012 260.222634 356.095846 280.401033 
C 347.737679 300.579433 335.48608 318.915246 320.042202 334.359125 
C 304.598323 349.803003 286.26251 362.054602 266.08411 370.412769 
C 245.905711 378.770936 224.277144 383.073125 202.436202 383.073125 
C 180.595259 383.073125 158.966693 378.770936 138.788293 370.412769 
C 118.609894 362.054602 100.27408 349.803003 84.830202 334.359125 
C 69.386323 318.915246 57.134725 300.579433 48.776558 280.401033 
C 40.418391 260.222634 36.116202 238.594067 36.116202 216.753125 
C 36.116202 194.912183 40.418391 173.283616 48.776558 153.105217 
C 57.134725 132.926817 69.386323 114.591004 84.830202 99.147125 
C 100.27408 83.703247 118.609894 71.451648 138.788293 63.093481 
C 158.966693 54.735314 180.595259 50.433125 202.436202 50.433125 
" clip-path="url(#p2104129d17)" style="fill: none; stroke: #808080; stroke-opacity: 0.8; stroke-linecap: square"/>
     </g>
     <g id="text_19">
      <!-- 100% -->
      <g transform="translate(202.436202 48.977344) scale(0.07 -0.07)">
       <defs>
        <path id="DejaVuSans-31" d="M 794 531 
L 1825 531 
L 1825 4091 
L 703 3866 
L 703 4441 
L 1819 4666 
L 2450 4666 
L 2450 531 
L 3481 531 
L 3481 0 
L 794 0 
L 794 531 
z
" transform="scale(0.015625)"/>
       </defs>
       <use xlink:href="#DejaVuSans-31"/>
       <use xlink:href="#DejaVuSans-30" transform="translate(63.623047 0)"/>
       <use xlink:href="#DejaVuSans-30" transform="translate(127.246094 0)"/>
       <use xlink:href="#DejaVuSans-25" transform="translate(190.869141 0)"/>
      </g>
     </g>
    </g>
   </g>
   <g id="line2d_20">
    <path d="M 202.436202 87.81762 
L 247.267082 131.33502 
L 250.676928 183.454956 
L 295.960491 205.39722 
L 324.986499 263.230322 
L 254.627041 275.664405 
L 232.872548 340.238238 
L 173.665266 333.481399 
L 199.738669 219.79801 
L 120.876675 247.684573 
L 106.746633 205.134308 
L 164.382463 190.486526 
L 161.981276 139.672704 
L 202.436202 87.81762 
" clip-path="url(#p2104129d17)" style="fill: none; stroke: #408ec6; stroke-width: 3; stroke-linecap: square"/>
   </g>
   <g id="patch_4">
    <path d="M 202.436202 50.433125 
C 180.595259 50.433125 158.966693 54.735314 138.788293 63.093481 
C 118.609894 71.451648 100.27408 83.703247 84.830202 99.147125 
C 69.386323 114.591004 57.134725 132.926817 48.776558 153.105217 
C 40.418391 173.283616 36.116202 194.912183 36.116202 216.753125 
C 36.116202 238.594067 40.418391 260.222634 48.776558 280.401033 
C 57.134725 300.579433 69.386323 318.915246 84.830202 334.359125 
C 100.27408 349.803003 118.609894 362.054602 138.788293 370.412769 
C 158.966693 378.770936 180.595259 383.073125 202.436202 383.073125 
C 224.277144 383.073125 245.905711 378.770936 266.08411 370.412769 
C 286.26251 362.054602 304.598323 349.803003 320.042202 334.359125 
C 335.48608 318.915246 347.737679 300.579433 356.095846 280.401033 
C 364.454012 260.222634 368.756202 238.594067 368.756202 216.753125 
C 368.756202 194.912183 364.454012 173.283616 356.095846 153.105217 
C 347.737679 132.926817 335.48608 114.591004 320.042202 99.147125 
C 304.598323 83.703247 286.26251 71.451648 266.08411 63.093481 
C 245.905711 54.735314 224.277144 50.433125 202.436202 50.433125 
" style="fill: none; stroke: #000000; stroke-width: 2; stroke-linejoin: miter; stroke-linecap: square"/>
   </g>
   <g id="text_20">
    <!-- ABL – combined -->
    <g transform="translate(150.46667 17.077969) scale(0.13 -0.13)">
     <defs>
      <path id="DejaVuSans-41" d="M 2188 4044 
L 1331 1722 
L 3047 1722 
L 2188 4044 
z
M 1831 4666 
L 2547 4666 
L 4325 0 
L 3669 0 
L 3244 1197 
L 1141 1197 
L 716 0 
L 50 0 
L 1831 4666 
z
" transform="scale(0.015625)"/>
      <path id="DejaVuSans-42" d="M 1259 2228 
L 1259 519 
L 2272 519 
Q 2781 519 3026 730 
Q 3272 941 3272 1375 
Q 3272 1813 3026 2020 
Q 2781 2228 2272 2228 
L 1259 2228 
z
M 1259 4147 
L 1259 2741 
L 2194 2741 
Q 2656 2741 2882 2914 
Q 3109 3088 3109 3444 
Q 3109 3797 2882 3972 
Q 2656 4147 2194 4147 
L 1259 4147 
z
M 628 4666 
L 2241 4666 
Q 2963 4666 3353 4366 
Q 3744 4066 3744 3513 
Q 3744 3084 3544 2831 
Q 3344 2578 2956 2516 
Q 3422 2416 3680 2098 
Q 3938 1781 3938 1306 
Q 3938 681 3513 340 
Q 3088 0 2303 0 
L 628 0 
L 628 4666 
z
" transform="scale(0.015625)"/>
      <path id="DejaVuSans-4c" d="M 628 4666 
L 1259 4666 
L 1259 531 
L 3531 531 
L 3531 0 
L 628 0 
L 628 4666 
z
" transform="scale(0.015625)"/>
      <path id="DejaVuSans-20" transform="scale(0.015625)"/>
      <path id="DejaVuSans-2013" d="M 313 1978 
L 2888 1978 
L 2888 1528 
L 313 1528 
L 313 1978 
z
" transform="scale(0.015625)"/>
      <path id="DejaVuSans-63" d="M 3122 3366 
L 3122 2828 
Q 2878 2963 2633 3030 
Q 2388 3097 2138 3097 
Q 1578 3097 1268 2742 
Q 959 2388 959 1747 
Q 959 1106 1268 751 
Q 1578 397 2138 397 
Q 2388 397 2633 464 
Q 2878 531 3122 666 
L 3122 134 
Q 2881 22 2623 -34 
Q 2366 -91 2075 -91 
Q 1284 -91 818 406 
Q 353 903 353 1747 
Q 353 2603 823 3093 
Q 1294 3584 2113 3584 
Q 2378 3584 2631 3529 
Q 2884 3475 3122 3366 
z
" transform="scale(0.015625)"/>
      <path id="DejaVuSans-6f" d="M 1959 3097 
Q 1497 3097 1228 2736 
Q 959 2375 959 1747 
Q 959 1119 1226 758 
Q 1494 397 1959 397 
Q 2419 397 2687 759 
Q 2956 1122 2956 1747 
Q 2956 2369 2687 2733 
Q 2419 3097 1959 3097 
z
M 1959 3584 
Q 2709 3584 3137 3096 
Q 3566 2609 3566 1747 
Q 3566 888 3137 398 
Q 2709 -91 1959 -91 
Q 1206 -91 779 398 
Q 353 888 353 1747 
Q 353 2609 779 3096 
Q 1206 3584 1959 3584 
z
" transform="scale(0.015625)"/>
      <path id="DejaVuSans-6d" d="M 3328 2828 
Q 3544 3216 3844 3400 
Q 4144 3584 4550 3584 
Q 5097 3584 5394 3201 
Q 5691 2819 5691 2113 
L 5691 0 
L 5113 0 
L 5113 2094 
Q 5113 2597 4934 2840 
Q 4756 3084 4391 3084 
Q 3944 3084 3684 2787 
Q 3425 2491 3425 1978 
L 3425 0 
L 2847 0 
L 2847 2094 
Q 2847 2600 2669 2842 
Q 2491 3084 2119 3084 
Q 1678 3084 1418 2786 
Q 1159 2488 1159 1978 
L 1159 0 
L 581 0 
L 581 3500 
L 1159 3500 
L 1159 2956 
Q 1356 3278 1631 3431 
Q 1906 3584 2284 3584 
Q 2666 3584 2933 3390 
Q 3200 3197 3328 2828 
z
" transform="scale(0.015625)"/>
      <path id="DejaVuSans-62" d="M 3116 1747 
Q 3116 2381 2855 2742 
Q 2594 3103 2138 3103 
Q 1681 3103 1420 2742 
Q 1159 2381 1159 1747 
Q 1159 1113 1420 752 
Q 1681 391 2138 391 
Q 2594 391 2855 752 
Q 3116 1113 3116 1747 
z
M 1159 2969 
Q 1341 3281 1617 3432 
Q 1894 3584 2278 3584 
Q 2916 3584 3314 3078 
Q 3713 2572 3713 1747 
Q 3713 922 3314 415 
Q 2916 -91 2278 -91 
Q 1894 -91 1617 61 
Q 1341 213 1159 525 
L 1159 0 
L 581 0 
L 581 4863 
L 1159 4863 
L 1159 2969 
z
" transform="scale(0.015625)"/>
      <path id="DejaVuSans-69" d="M 603 3500 
L 1178 3500 
L 1178 0 
L 603 0 
L 603 3500 
z
M 603 4863 
L 1178 4863 
L 1178 4134 
L 603 4134 
L 603 4863 
z
" transform="scale(0.015625)"/>
      <path id="DejaVuSans-6e" d="M 3513 2113 
L 3513 0 
L 2938 0 
L 2938 2094 
Q 2938 2591 2744 2837 
Q 2550 3084 2163 3084 
Q 1697 3084 1428 2787 
Q 1159 2491 1159 1978 
L 1159 0 
L 581 0 
L 581 3500 
L 1159 3500 
L 1159 2956 
Q 1366 3272 1645 3428 
Q 1925 3584 2291 3584 
Q 2894 3584 3203 3211 
Q 3513 2838 3513 2113 
z
" transform="scale(0.015625)"/>
      <path id="DejaVuSans-65" d="M 3597 1894 
L 3597 1613 
L 953 1613 
Q 991 1019 1311 708 
Q 1631 397 2203 397 
Q 2534 397 2845 478 
Q 3156 559 3463 722 
L 3463 178 
Q 3153 47 2828 -22 
Q 2503 -91 2169 -91 
Q 1331 -91 842 396 
Q 353 884 353 1716 
Q 353 2575 817 3079 
Q 1281 3584 2069 3584 
Q 2775 3584 3186 3129 
Q 3597 2675 3597 1894 
z
M 3022 2063 
Q 3016 2534 2758 2815 
Q 2500 3097 2075 3097 
Q 1594 3097 1305 2825 
Q 1016 2553 972 2059 
L 3022 2063 
z
" transform="scale(0.015625)"/>
      <path id="DejaVuSans-64" d="M 2906 2969 
L 2906 4863 
L 3481 4863 
L 3481 0 
L 2906 0 
L 2906 525 
Q 2725 213 2448 61 
Q 2172 -91 1784 -91 
Q 1150 -91 751 415 
Q 353 922 353 1747 
Q 353 2572 751 3078 
Q 1150 3584 1784 3584 
Q 2172 3584 2448 3432 
Q 2725 3281 2906 2969 
z
M 947 1747 
Q 947 1113 1208 752 
Q 1469 391 1925 391 
Q 2381 391 2643 752 
Q 2906 1113 2906 1747 
Q 2906 2381 2643 2742 
Q 2381 3103 1925 3103 
Q 1469 3103 1208 2742 
Q 947 2381 947 1747 
z
" transform="scale(0.015625)"/>
     </defs>
     <use xlink:href="#DejaVuSans-41"/>
     <use xlink:href="#DejaVuSans-42" transform="translate(68.408203 0)"/>
     <use xlink:href="#DejaVuSans-4c" transform="translate(137.011719 0)"/>
     <use xlink:href="#DejaVuSans-20" transform="translate(192.724609 0)"/>
     <use xlink:href="#DejaVuSans-2013" transform="translate(224.511719 0)"/>
     <use xlink:href="#DejaVuSans-20" transform="translate(274.511719 0)"/>
     <use xlink:href="#DejaVuSans-63" transform="translate(306.298828 0)"/>
     <use xlink:href="#DejaVuSans-6f" transform="translate(361.279297 0)"/>
     <use xlink:href="#DejaVuSans-6d" transform="translate(422.460938 0)"/>
     <use xlink:href="#DejaVuSans-62" transform="translate(519.873047 0)"/>
     <use xlink:href="#DejaVuSans-69" transform="translate(583.349609 0)"/>
     <use xlink:href="#DejaVuSans-6e" transform="translate(611.132812 0)"/>
     <use xlink:href="#DejaVuSans-65" transform="translate(674.511719 0)"/>
     <use xlink:href="#DejaVuSans-64" transform="translate(736.035156 0)"/>
    </g>
   </g>
  </g>
 </g>
 <defs>
  <clipPath id="p2104129d17">
   <path d="M 368.756202 216.753125 
C 368.756202 194.912183 364.454012 173.283616 356.095846 153.105217 
C 347.737679 132.926817 335.48608 114.591004 320.042202 99.147125 
C 304.598323 83.703247 286.26251 71.451648 266.08411 63.093481 
C 245.905711 54.735314 224.277144 50.433125 202.436202 50.433125 
C 180.595259 50.433125 158.966693 54.735314 138.788293 63.093481 
C 118.609894 71.451648 100.27408 83.703247 84.830202 99.147125 
C 69.386323 114.591004 57.134725 132.926817 48.776558 153.105217 
C 40.418391 173.283616 36.116202 194.912183 36.116202 216.753125 
C 36.116202 238.594067 40.418391 260.222634 48.776558 280.401033 
C 57.134725 300.579433 69.386323 318.915246 84.830202 334.359125 
C 100.27408 349.803003 118.609894 362.054602 138.788293 370.412769 
C 158.966693 378.770936 180.595259 383.073125 202.436202 383.073125 
C 224.277144 383.073125 245.905711 378.770936 266.08411 370.412769 
C 286.26251 362.054602 304.598323 349.803003 320.042202 334.359125 
C 335.48608 318.915246 347.737679 300.579433 356.095846 280.401033 
C 364.454012 260.222634 368.756202 238.594067 368.756202 216.753125 
M 202.436202 216.753125 
C 202.436202 216.753125 202.436202 216.753125 202.436202 216.753125 
C 202.436202 216.753125 202.436202 216.753125 202.436202 216.753125 
C 202.436202 216.753125 202.436202 216.753125 202.436202 216.753125 
C 202.436202 216.753125 202.436202 216.753125 202.436202 216.753125 
C 202.436202 216.753125 202.436202 216.753125 202.436202 216.753125 
C 202.436202 216.753125 202.436202 216.753125 202.436202 216.753125 
C 202.436202 216.753125 202.436202 216.753125 202.436202 216.753125 
C 202.436202 216.753125 202.436202 216.753125 202.436202 216.753125 
C 202.436202 216.753125 202.436202 216.753125 202.436202 216.753125 
C 202.436202 216.753125 202.436202 216.753125 202.436202 216.753125 
C 202.436202 216.753125 202.436202 216.753125 202.436202 216.753125 
C 202.436202 216.753125 202.436202 216.753125 202.436202 216.753125 
C 202.436202 216.753125 202.436202 216.753125 202.436202 216.753125 
C 202.436202 216.753125 202.436202 216.753125 202.436202 216.753125 
C 202.436202 216.753125 202.436202 216.753125 202.436202 216.753125 
C 202.436202 216.753125 202.436202 216.753125 202.436202 216.753125 
z
"/>
  </clipPath>
 </defs>
</svg>
