<?xml version="1.0" encoding="utf-8" standalone="no"?>
<!DOCTYPE svg PUBLIC "-//W3C//DTD SVG 1.1//EN"
  "http://www.w3.org/Graphics/SVG/1.1/DTD/svg11.dtd">
<svg xmlns:xlink="http://www.w3.org/1999/xlink" width="535.604751pt" height="459.231855pt" viewBox="0 0 535.604751 459.231855" xmlns="http://www.w3.org/2000/svg" version="1.1">
 <metadata>
  <rdf:RDF xmlns:dc="http://purl.org/dc/elements/1.1/" xmlns:cc="http://creativecommons.org/ns#" xmlns:rdf="http://www.w3.org/1999/02/22-rdf-syntax-ns#">
   <cc:Work>
    <dc:type rdf:resource="http://purl.org/dc/dcmitype/StillImage"/>
    <dc:date>2026-06-24T13:39:37.769415</dc:date>
    <dc:format>image/svg+xml</dc:format>
    <dc:creator>
     <cc:Agent>
      <dc:title>Matplotlib v3.10.8, https://matplotlib.org/</dc:title>
     </cc:Agent>
    </dc:creator>
   </cc:Work>
  </rdf:RDF>
 </metadata>
 <defs>
  <style type="text/css">*{stroke-linejoin: round; stroke-linecap: butt}</style>
 </defs>
 <g id="figure_1">
  <g id="patch_1">
   <path d="M 0 459.231855 
L 535.604751 459.231855 
L 535.604751 -0 
L 0 -0 
z
" style="fill: #ffffff"/>
  </g>
  <g id="axes_1">
   <g id="patch_2">
    <path d="M 415.980751 242.08581 
C 415.980751 216.604711 410.96153 191.371383 401.210336 167.829917 
C 391.459141 144.288451 377.165609 122.896669 359.147751 104.878811 
C 341.129893 86.860952 319.738111 72.56742 296.196645 62.816226 
C 272.655178 53.065031 247.421851 48.04581 221.940751 48.04581 
C 196.459652 48.04581 171.226324 53.065031 147.684858 62.816226 
C 124.143392 72.56742 102.75161 86.860952 84.733752 104.878811 
C 66.715893 122.896669 52.422361 144.288451 42.671167 167.829917 
C 32.919972 191.371383 27.900751 216.604711 27.900751 242.08581 
C 27.900751 267.56691 32.919972 292.800237 42.671167 316.341704 
C 52.422361 339.88317 66.715893 361.274952 84.733752 379.29281 
C 102.75161 397.310668 124.143392 411.6042 147.684858 421.355395 
C 171.226324 431.106589 196.459652 436.12581 221.940751 436.12581 
C 247.421851 436.12581 272.655178 431.106589 296.196645 421.355395 
C 319.738111 411.6042 341.129893 397.310668 359.147751 379.29281 
C 377.165609 361.274952 391.459141 339.88317 401.210336 316.341704 
C 410.96153 292.800237 415.980751 267.56691 415.980751 242.08581 
M 221.940751 242.08581 
C 221.940751 242.08581 221.940751 242.08581 221.940751 242.08581 
C 221.940751 242.08581 221.940751 242.08581 221.940751 242.08581 
C 221.940751 242.08581 221.940751 242.08581 221.940751 242.08581 
C 221.940751 242.08581 221.940751 242.08581 221.940751 242.08581 
C 221.940751 242.08581 221.940751 242.08581 221.940751 242.08581 
C 221.940751 242.08581 221.940751 242.08581 221.940751 242.08581 
C 221.940751 242.08581 221.940751 242.08581 221.940751 242.08581 
C 221.940751 242.08581 221.940751 242.08581 221.940751 242.08581 
C 221.940751 242.08581 221.940751 242.08581 221.940751 242.08581 
C 221.940751 242.08581 221.940751 242.08581 221.940751 242.08581 
C 221.940751 242.08581 221.940751 242.08581 221.940751 242.08581 
C 221.940751 242.08581 221.940751 242.08581 221.940751 242.08581 
C 221.940751 242.08581 221.940751 242.08581 221.940751 242.08581 
C 221.940751 242.08581 221.940751 242.08581 221.940751 242.08581 
C 221.940751 242.08581 221.940751 242.08581 221.940751 242.08581 
C 221.940751 242.08581 221.940751 242.08581 221.940751 242.08581 
z
" style="fill: #ffffff"/>
   </g>
   <g id="patch_3">
    <path d="M 381.902082 242.08581 
L 320.796903 190.202099 
L 264.819782 179.96481 
L 235.293574 132.115419 
L 167.077827 97.424167 
L 149.447375 177.862283 
L 67.716667 204.072988 
L 68.221314 279.974249 
L 218.431777 245.19449 
L 183.402751 343.702166 
L 236.030621 358.126324 
L 248.43621 280.471109 
L 319.467692 293.271897 
z
" clip-path="url(#p6f0a6955d0)" style="fill: #408ec6; opacity: 0.15; stroke: #408ec6; stroke-linejoin: miter"/>
   </g>
   <g id="patch_4">
    <path d="M 358.001483 242.08581 
L 321.984281 189.578916 
L 261.396228 184.924685 
L 234.346592 139.914517 
L 168.319748 100.698844 
L 165.483665 192.069196 
L 93.597164 210.451957 
L 126.994717 265.487906 
L 218.110556 245.479068 
L 192.588677 319.480869 
L 234.219943 343.214056 
L 260.931134 298.573131 
L 307.328014 286.900503 
z
" clip-path="url(#p6f0a6955d0)" style="fill: #e84646; opacity: 0.15; stroke: #e84646; stroke-linejoin: miter"/>
   </g>
   <g id="patch_5">
    <path d="M 377.083049 242.08581 
L 322.001802 189.56972 
L 256.200583 192.451876 
L 235.916573 126.98456 
L 167.756608 99.213966 
L 144.841219 173.781585 
L 72.433741 205.235642 
L 62.475094 281.390565 
L 218.619231 245.028421 
L 181.643284 348.341499 
L 236.224536 359.72336 
L 248.46634 280.51476 
L 308.820952 287.684057 
z
" clip-path="url(#p6f0a6955d0)" style="fill: #2ecc71; opacity: 0.15; stroke: #2ecc71; stroke-linejoin: miter"/>
   </g>
   <g id="matplotlib.axis_1">
    <g id="xtick_1">
     <g id="line2d_1">
      <path d="M 221.940751 242.08581 
L 415.980751 242.08581 
" clip-path="url(#p6f0a6955d0)" style="fill: none; stroke: #b0b0b0; stroke-width: 0.8; stroke-linecap: square"/>
     </g>
     <g id="text_1">
      <!-- MW -->
      <g transform="translate(423.500283 244.017373) scale(0.07 -0.07)">
       <defs>
        <path id="DejaVuSans-4d" d="M 628 4666 
L 1569 4666 
L 2759 1491 
L 3956 4666 
L 4897 4666 
L 4897 0 
L 4281 0 
L 4281 4097 
L 3078 897 
L 2444 897 
L 1241 4097 
L 1241 0 
L 628 0 
L 628 4666 
z
" transform="scale(0.015625)"/>
        <path id="DejaVuSans-57" d="M 213 4666 
L 850 4666 
L 1831 722 
L 2809 4666 
L 3519 4666 
L 4500 722 
L 5478 4666 
L 6119 4666 
L 4947 0 
L 4153 0 
L 3169 4050 
L 2175 0 
L 1381 0 
L 213 4666 
z
" transform="scale(0.015625)"/>
       </defs>
       <use xlink:href="#DejaVuSans-4d"/>
       <use xlink:href="#DejaVuSans-57" transform="translate(86.279297 0)"/>
      </g>
     </g>
    </g>
    <g id="xtick_2">
     <g id="line2d_2">
      <path d="M 221.940751 242.08581 
L 393.754639 151.910926 
" clip-path="url(#p6f0a6955d0)" style="fill: none; stroke: #b0b0b0; stroke-width: 0.8; stroke-linecap: square"/>
     </g>
     <g id="text_2">
      <!-- AliR_C -->
      <g transform="translate(395.186179 147.23902) scale(0.07 -0.07)">
       <defs>
        <path id="DejaVuSans-41" d="M 2188 4044 
L 1331 1722 
L 3047 1722 
L 2188 4044 
z
M 1831 4666 
L 2547 4666 
L 4325 0 
L 3669 0 
L 3244 1197 
L 1141 1197 
L 716 0 
L 50 0 
L 1831 4666 
z
" transform="scale(0.015625)"/>
        <path id="DejaVuSans-6c" d="M 603 4863 
L 1178 4863 
L 1178 0 
L 603 0 
L 603 4863 
z
" transform="scale(0.015625)"/>
        <path id="DejaVuSans-69" d="M 603 3500 
L 1178 3500 
L 1178 0 
L 603 0 
L 603 3500 
z
M 603 4863 
L 1178 4863 
L 1178 4134 
L 603 4134 
L 603 4863 
z
" transform="scale(0.015625)"/>
        <path id="DejaVuSans-52" d="M 2841 2188 
Q 3044 2119 3236 1894 
Q 3428 1669 3622 1275 
L 4263 0 
L 3584 0 
L 2988 1197 
Q 2756 1666 2539 1819 
Q 2322 1972 1947 1972 
L 1259 1972 
L 1259 0 
L 628 0 
L 628 4666 
L 2053 4666 
Q 2853 4666 3247 4331 
Q 3641 3997 3641 3322 
Q 3641 2881 3436 2590 
Q 3231 2300 2841 2188 
z
M 1259 4147 
L 1259 2491 
L 2053 2491 
Q 2509 2491 2742 2702 
Q 2975 2913 2975 3322 
Q 2975 3731 2742 3939 
Q 2509 4147 2053 4147 
L 1259 4147 
z
" transform="scale(0.015625)"/>
        <path id="DejaVuSans-5f" d="M 3263 -1063 
L 3263 -1509 
L -63 -1509 
L -63 -1063 
L 3263 -1063 
z
" transform="scale(0.015625)"/>
        <path id="DejaVuSans-43" d="M 4122 4306 
L 4122 3641 
Q 3803 3938 3442 4084 
Q 3081 4231 2675 4231 
Q 1875 4231 1450 3742 
Q 1025 3253 1025 2328 
Q 1025 1406 1450 917 
Q 1875 428 2675 428 
Q 3081 428 3442 575 
Q 3803 722 4122 1019 
L 4122 359 
Q 3791 134 3420 21 
Q 3050 -91 2638 -91 
Q 1578 -91 968 557 
Q 359 1206 359 2328 
Q 359 3453 968 4101 
Q 1578 4750 2638 4750 
Q 3056 4750 3426 4639 
Q 3797 4528 4122 4306 
z
" transform="scale(0.015625)"/>
       </defs>
       <use xlink:href="#DejaVuSans-41"/>
       <use xlink:href="#DejaVuSans-6c" transform="translate(68.408203 0)"/>
       <use xlink:href="#DejaVuSans-69" transform="translate(96.191406 0)"/>
       <use xlink:href="#DejaVuSans-52" transform="translate(123.974609 0)"/>
       <use xlink:href="#DejaVuSans-5f" transform="translate(193.457031 0)"/>
       <use xlink:href="#DejaVuSans-43" transform="translate(243.457031 0)"/>
      </g>
     </g>
    </g>
    <g id="xtick_3">
     <g id="line2d_3">
      <path d="M 221.940751 242.08581 
L 332.168035 82.394021 
" clip-path="url(#p6f0a6955d0)" style="fill: none; stroke: #b0b0b0; stroke-width: 0.8; stroke-linecap: square"/>
     </g>
     <g id="text_3">
      <!-- AroR_C -->
      <g transform="translate(327.599144 72.644669) scale(0.07 -0.07)">
       <defs>
        <path id="DejaVuSans-72" d="M 2631 2963 
Q 2534 3019 2420 3045 
Q 2306 3072 2169 3072 
Q 1681 3072 1420 2755 
Q 1159 2438 1159 1844 
L 1159 0 
L 581 0 
L 581 3500 
L 1159 3500 
L 1159 2956 
Q 1341 3275 1631 3429 
Q 1922 3584 2338 3584 
Q 2397 3584 2469 3576 
Q 2541 3569 2628 3553 
L 2631 2963 
z
" transform="scale(0.015625)"/>
        <path id="DejaVuSans-6f" d="M 1959 3097 
Q 1497 3097 1228 2736 
Q 959 2375 959 1747 
Q 959 1119 1226 758 
Q 1494 397 1959 397 
Q 2419 397 2687 759 
Q 2956 1122 2956 1747 
Q 2956 2369 2687 2733 
Q 2419 3097 1959 3097 
z
M 1959 3584 
Q 2709 3584 3137 3096 
Q 3566 2609 3566 1747 
Q 3566 888 3137 398 
Q 2709 -91 1959 -91 
Q 1206 -91 779 398 
Q 353 888 353 1747 
Q 353 2609 779 3096 
Q 1206 3584 1959 3584 
z
" transform="scale(0.015625)"/>
       </defs>
       <use xlink:href="#DejaVuSans-41"/>
       <use xlink:href="#DejaVuSans-72" transform="translate(68.408203 0)"/>
       <use xlink:href="#DejaVuSans-6f" transform="translate(107.271484 0)"/>
       <use xlink:href="#DejaVuSans-52" transform="translate(168.453125 0)"/>
       <use xlink:href="#DejaVuSans-5f" transform="translate(237.935547 0)"/>
       <use xlink:href="#DejaVuSans-43" transform="translate(287.935547 0)"/>
      </g>
     </g>
    </g>
    <g id="xtick_4">
     <g id="line2d_4">
      <path d="M 221.940751 242.08581 
L 245.329689 49.46058 
" clip-path="url(#p6f0a6955d0)" style="fill: none; stroke: #b0b0b0; stroke-width: 0.8; stroke-linecap: square"/>
     </g>
     <g id="text_4">
      <!-- ChiA_C -->
      <g transform="translate(234.794546 37.396875) scale(0.07 -0.07)">
       <defs>
        <path id="DejaVuSans-68" d="M 3513 2113 
L 3513 0 
L 2938 0 
L 2938 2094 
Q 2938 2591 2744 2837 
Q 2550 3084 2163 3084 
Q 1697 3084 1428 2787 
Q 1159 2491 1159 1978 
L 1159 0 
L 581 0 
L 581 4863 
L 1159 4863 
L 1159 2956 
Q 1366 3272 1645 3428 
Q 1925 3584 2291 3584 
Q 2894 3584 3203 3211 
Q 3513 2838 3513 2113 
z
" transform="scale(0.015625)"/>
       </defs>
       <use xlink:href="#DejaVuSans-43"/>
       <use xlink:href="#DejaVuSans-68" transform="translate(69.824219 0)"/>
       <use xlink:href="#DejaVuSans-69" transform="translate(133.203125 0)"/>
       <use xlink:href="#DejaVuSans-41" transform="translate(160.986328 0)"/>
       <use xlink:href="#DejaVuSans-5f" transform="translate(229.394531 0)"/>
       <use xlink:href="#DejaVuSans-43" transform="translate(279.394531 0)"/>
      </g>
     </g>
    </g>
    <g id="xtick_5">
     <g id="line2d_5">
      <path d="M 221.940751 242.08581 
L 153.133219 60.655259 
" clip-path="url(#p6f0a6955d0)" style="fill: none; stroke: #b0b0b0; stroke-width: 0.8; stroke-linecap: square"/>
     </g>
     <g id="text_5">
      <!-- SA -->
      <g transform="translate(143.486954 49.496594) scale(0.07 -0.07)">
       <defs>
        <path id="DejaVuSans-53" d="M 3425 4513 
L 3425 3897 
Q 3066 4069 2747 4153 
Q 2428 4238 2131 4238 
Q 1616 4238 1336 4038 
Q 1056 3838 1056 3469 
Q 1056 3159 1242 3001 
Q 1428 2844 1947 2747 
L 2328 2669 
Q 3034 2534 3370 2195 
Q 3706 1856 3706 1288 
Q 3706 609 3251 259 
Q 2797 -91 1919 -91 
Q 1588 -91 1214 -16 
Q 841 59 441 206 
L 441 856 
Q 825 641 1194 531 
Q 1563 422 1919 422 
Q 2459 422 2753 634 
Q 3047 847 3047 1241 
Q 3047 1584 2836 1778 
Q 2625 1972 2144 2069 
L 1759 2144 
Q 1053 2284 737 2584 
Q 422 2884 422 3419 
Q 422 4038 858 4394 
Q 1294 4750 2059 4750 
Q 2388 4750 2728 4690 
Q 3069 4631 3425 4513 
z
" transform="scale(0.015625)"/>
       </defs>
       <use xlink:href="#DejaVuSans-53"/>
       <use xlink:href="#DejaVuSans-41" transform="translate(65.351562 0)"/>
      </g>
     </g>
    </g>
    <g id="xtick_6">
     <g id="line2d_6">
      <path d="M 221.940751 242.08581 
L 76.699726 113.41349 
" clip-path="url(#p6f0a6955d0)" style="fill: none; stroke: #b0b0b0; stroke-width: 0.8; stroke-linecap: square"/>
     </g>
     <g id="text_6">
      <!-- NHOH_C -->
      <g transform="translate(51.388778 105.902194) scale(0.07 -0.07)">
       <defs>
        <path id="DejaVuSans-4e" d="M 628 4666 
L 1478 4666 
L 3547 763 
L 3547 4666 
L 4159 4666 
L 4159 0 
L 3309 0 
L 1241 3903 
L 1241 0 
L 628 0 
L 628 4666 
z
" transform="scale(0.015625)"/>
        <path id="DejaVuSans-48" d="M 628 4666 
L 1259 4666 
L 1259 2753 
L 3553 2753 
L 3553 4666 
L 4184 4666 
L 4184 0 
L 3553 0 
L 3553 2222 
L 1259 2222 
L 1259 0 
L 628 0 
L 628 4666 
z
" transform="scale(0.015625)"/>
        <path id="DejaVuSans-4f" d="M 2522 4238 
Q 1834 4238 1429 3725 
Q 1025 3213 1025 2328 
Q 1025 1447 1429 934 
Q 1834 422 2522 422 
Q 3209 422 3611 934 
Q 4013 1447 4013 2328 
Q 4013 3213 3611 3725 
Q 3209 4238 2522 4238 
z
M 2522 4750 
Q 3503 4750 4090 4092 
Q 4678 3434 4678 2328 
Q 4678 1225 4090 567 
Q 3503 -91 2522 -91 
Q 1538 -91 948 565 
Q 359 1222 359 2328 
Q 359 3434 948 4092 
Q 1538 4750 2522 4750 
z
" transform="scale(0.015625)"/>
       </defs>
       <use xlink:href="#DejaVuSans-4e"/>
       <use xlink:href="#DejaVuSans-48" transform="translate(74.804688 0)"/>
       <use xlink:href="#DejaVuSans-4f" transform="translate(150 0)"/>
       <use xlink:href="#DejaVuSans-48" transform="translate(228.710938 0)"/>
       <use xlink:href="#DejaVuSans-5f" transform="translate(303.90625 0)"/>
       <use xlink:href="#DejaVuSans-43" transform="translate(353.90625 0)"/>
      </g>
     </g>
    </g>
    <g id="xtick_7">
     <g id="line2d_7">
      <path d="M 221.940751 242.08581 
L 33.539201 195.648999 
" clip-path="url(#p6f0a6955d0)" style="fill: none; stroke: #b0b0b0; stroke-width: 0.8; stroke-linecap: square"/>
     </g>
     <g id="text_7">
      <!-- HetA_C -->
      <g transform="translate(7.2 194.071001) scale(0.07 -0.07)">
       <defs>
        <path id="DejaVuSans-65" d="M 3597 1894 
L 3597 1613 
L 953 1613 
Q 991 1019 1311 708 
Q 1631 397 2203 397 
Q 2534 397 2845 478 
Q 3156 559 3463 722 
L 3463 178 
Q 3153 47 2828 -22 
Q 2503 -91 2169 -91 
Q 1331 -91 842 396 
Q 353 884 353 1716 
Q 353 2575 817 3079 
Q 1281 3584 2069 3584 
Q 2775 3584 3186 3129 
Q 3597 2675 3597 1894 
z
M 3022 2063 
Q 3016 2534 2758 2815 
Q 2500 3097 2075 3097 
Q 1594 3097 1305 2825 
Q 1016 2553 972 2059 
L 3022 2063 
z
" transform="scale(0.015625)"/>
        <path id="DejaVuSans-74" d="M 1172 4494 
L 1172 3500 
L 2356 3500 
L 2356 3053 
L 1172 3053 
L 1172 1153 
Q 1172 725 1289 603 
Q 1406 481 1766 481 
L 2356 481 
L 2356 0 
L 1766 0 
Q 1100 0 847 248 
Q 594 497 594 1153 
L 594 3053 
L 172 3053 
L 172 3500 
L 594 3500 
L 594 4494 
L 1172 4494 
z
" transform="scale(0.015625)"/>
       </defs>
       <use xlink:href="#DejaVuSans-48"/>
       <use xlink:href="#DejaVuSans-65" transform="translate(75.195312 0)"/>
       <use xlink:href="#DejaVuSans-74" transform="translate(136.71875 0)"/>
       <use xlink:href="#DejaVuSans-41" transform="translate(175.927734 0)"/>
       <use xlink:href="#DejaVuSans-5f" transform="translate(244.335938 0)"/>
       <use xlink:href="#DejaVuSans-43" transform="translate(294.335938 0)"/>
      </g>
     </g>
    </g>
    <g id="xtick_8">
     <g id="line2d_8">
      <path d="M 221.940751 242.08581 
L 33.539201 288.522622 
" clip-path="url(#p6f0a6955d0)" style="fill: none; stroke: #b0b0b0; stroke-width: 0.8; stroke-linecap: square"/>
     </g>
     <g id="text_8">
      <!-- RotB_C -->
      <g transform="translate(7.562578 293.645463) scale(0.07 -0.07)">
       <defs>
        <path id="DejaVuSans-42" d="M 1259 2228 
L 1259 519 
L 2272 519 
Q 2781 519 3026 730 
Q 3272 941 3272 1375 
Q 3272 1813 3026 2020 
Q 2781 2228 2272 2228 
L 1259 2228 
z
M 1259 4147 
L 1259 2741 
L 2194 2741 
Q 2656 2741 2882 2914 
Q 3109 3088 3109 3444 
Q 3109 3797 2882 3972 
Q 2656 4147 2194 4147 
L 1259 4147 
z
M 628 4666 
L 2241 4666 
Q 2963 4666 3353 4366 
Q 3744 4066 3744 3513 
Q 3744 3084 3544 2831 
Q 3344 2578 2956 2516 
Q 3422 2416 3680 2098 
Q 3938 1781 3938 1306 
Q 3938 681 3513 340 
Q 3088 0 2303 0 
L 628 0 
L 628 4666 
z
" transform="scale(0.015625)"/>
       </defs>
       <use xlink:href="#DejaVuSans-52"/>
       <use xlink:href="#DejaVuSans-6f" transform="translate(64.982422 0)"/>
       <use xlink:href="#DejaVuSans-74" transform="translate(126.164062 0)"/>
       <use xlink:href="#DejaVuSans-42" transform="translate(165.373047 0)"/>
       <use xlink:href="#DejaVuSans-5f" transform="translate(233.976562 0)"/>
       <use xlink:href="#DejaVuSans-43" transform="translate(283.976562 0)"/>
      </g>
     </g>
    </g>
    <g id="xtick_9">
     <g id="line2d_9">
      <path d="M 221.940751 242.08581 
L 76.699726 370.758131 
" clip-path="url(#p6f0a6955d0)" style="fill: none; stroke: #b0b0b0; stroke-width: 0.8; stroke-linecap: square"/>
     </g>
     <g id="text_9">
      <!-- BriA_C -->
      <g transform="translate(54.819872 381.876067) scale(0.07 -0.07)">
       <use xlink:href="#DejaVuSans-42"/>
       <use xlink:href="#DejaVuSans-72" transform="translate(68.603516 0)"/>
       <use xlink:href="#DejaVuSans-69" transform="translate(109.716797 0)"/>
       <use xlink:href="#DejaVuSans-41" transform="translate(137.5 0)"/>
       <use xlink:href="#DejaVuSans-5f" transform="translate(205.908203 0)"/>
       <use xlink:href="#DejaVuSans-43" transform="translate(255.908203 0)"/>
      </g>
     </g>
    </g>
    <g id="xtick_10">
     <g id="line2d_10">
      <path d="M 221.940751 242.08581 
L 153.133219 423.516362 
" clip-path="url(#p6f0a6955d0)" style="fill: none; stroke: #b0b0b0; stroke-width: 0.8; stroke-linecap: square"/>
     </g>
     <g id="text_10">
      <!-- HBD_C -->
      <g transform="translate(136.246329 438.379011) scale(0.07 -0.07)">
       <defs>
        <path id="DejaVuSans-44" d="M 1259 4147 
L 1259 519 
L 2022 519 
Q 2988 519 3436 956 
Q 3884 1394 3884 2338 
Q 3884 3275 3436 3711 
Q 2988 4147 2022 4147 
L 1259 4147 
z
M 628 4666 
L 1925 4666 
Q 3281 4666 3915 4102 
Q 4550 3538 4550 2338 
Q 4550 1131 3912 565 
Q 3275 0 1925 0 
L 628 0 
L 628 4666 
z
" transform="scale(0.015625)"/>
       </defs>
       <use xlink:href="#DejaVuSans-48"/>
       <use xlink:href="#DejaVuSans-42" transform="translate(75.195312 0)"/>
       <use xlink:href="#DejaVuSans-44" transform="translate(143.798828 0)"/>
       <use xlink:href="#DejaVuSans-5f" transform="translate(220.800781 0)"/>
       <use xlink:href="#DejaVuSans-43" transform="translate(270.800781 0)"/>
      </g>
     </g>
    </g>
    <g id="xtick_11">
     <g id="line2d_11">
      <path d="M 221.940751 242.08581 
L 245.329689 434.71104 
" clip-path="url(#p6f0a6955d0)" style="fill: none; stroke: #b0b0b0; stroke-width: 0.8; stroke-linecap: square"/>
     </g>
     <g id="text_11">
      <!-- HBA_C -->
      <g transform="translate(235.395562 450.381386) scale(0.07 -0.07)">
       <use xlink:href="#DejaVuSans-48"/>
       <use xlink:href="#DejaVuSans-42" transform="translate(75.195312 0)"/>
       <use xlink:href="#DejaVuSans-41" transform="translate(143.798828 0)"/>
       <use xlink:href="#DejaVuSans-5f" transform="translate(212.207031 0)"/>
       <use xlink:href="#DejaVuSans-43" transform="translate(262.207031 0)"/>
      </g>
     </g>
    </g>
    <g id="xtick_12">
     <g id="line2d_12">
      <path d="M 221.940751 242.08581 
L 332.168035 401.7776 
" clip-path="url(#p6f0a6955d0)" style="fill: none; stroke: #b0b0b0; stroke-width: 0.8; stroke-linecap: square"/>
     </g>
     <g id="text_12">
      <!-- FusedR_C -->
      <g transform="translate(323.257504 415.133593) scale(0.07 -0.07)">
       <defs>
        <path id="DejaVuSans-46" d="M 628 4666 
L 3309 4666 
L 3309 4134 
L 1259 4134 
L 1259 2759 
L 3109 2759 
L 3109 2228 
L 1259 2228 
L 1259 0 
L 628 0 
L 628 4666 
z
" transform="scale(0.015625)"/>
        <path id="DejaVuSans-75" d="M 544 1381 
L 544 3500 
L 1119 3500 
L 1119 1403 
Q 1119 906 1312 657 
Q 1506 409 1894 409 
Q 2359 409 2629 706 
Q 2900 1003 2900 1516 
L 2900 3500 
L 3475 3500 
L 3475 0 
L 2900 0 
L 2900 538 
Q 2691 219 2414 64 
Q 2138 -91 1772 -91 
Q 1169 -91 856 284 
Q 544 659 544 1381 
z
M 1991 3584 
L 1991 3584 
z
" transform="scale(0.015625)"/>
        <path id="DejaVuSans-73" d="M 2834 3397 
L 2834 2853 
Q 2591 2978 2328 3040 
Q 2066 3103 1784 3103 
Q 1356 3103 1142 2972 
Q 928 2841 928 2578 
Q 928 2378 1081 2264 
Q 1234 2150 1697 2047 
L 1894 2003 
Q 2506 1872 2764 1633 
Q 3022 1394 3022 966 
Q 3022 478 2636 193 
Q 2250 -91 1575 -91 
Q 1294 -91 989 -36 
Q 684 19 347 128 
L 347 722 
Q 666 556 975 473 
Q 1284 391 1588 391 
Q 1994 391 2212 530 
Q 2431 669 2431 922 
Q 2431 1156 2273 1281 
Q 2116 1406 1581 1522 
L 1381 1569 
Q 847 1681 609 1914 
Q 372 2147 372 2553 
Q 372 3047 722 3315 
Q 1072 3584 1716 3584 
Q 2034 3584 2315 3537 
Q 2597 3491 2834 3397 
z
" transform="scale(0.015625)"/>
        <path id="DejaVuSans-64" d="M 2906 2969 
L 2906 4863 
L 3481 4863 
L 3481 0 
L 2906 0 
L 2906 525 
Q 2725 213 2448 61 
Q 2172 -91 1784 -91 
Q 1150 -91 751 415 
Q 353 922 353 1747 
Q 353 2572 751 3078 
Q 1150 3584 1784 3584 
Q 2172 3584 2448 3432 
Q 2725 3281 2906 2969 
z
M 947 1747 
Q 947 1113 1208 752 
Q 1469 391 1925 391 
Q 2381 391 2643 752 
Q 2906 1113 2906 1747 
Q 2906 2381 2643 2742 
Q 2381 3103 1925 3103 
Q 1469 3103 1208 2742 
Q 947 2381 947 1747 
z
" transform="scale(0.015625)"/>
       </defs>
       <use xlink:href="#DejaVuSans-46"/>
       <use xlink:href="#DejaVuSans-75" transform="translate(52.019531 0)"/>
       <use xlink:href="#DejaVuSans-73" transform="translate(115.398438 0)"/>
       <use xlink:href="#DejaVuSans-65" transform="translate(167.498047 0)"/>
       <use xlink:href="#DejaVuSans-64" transform="translate(229.021484 0)"/>
       <use xlink:href="#DejaVuSans-52" transform="translate(292.498047 0)"/>
       <use xlink:href="#DejaVuSans-5f" transform="translate(361.980469 0)"/>
       <use xlink:href="#DejaVuSans-43" transform="translate(411.980469 0)"/>
      </g>
     </g>
    </g>
    <g id="xtick_13">
     <g id="line2d_13">
      <path d="M 221.940751 242.08581 
L 393.754639 332.260695 
" clip-path="url(#p6f0a6955d0)" style="fill: none; stroke: #b0b0b0; stroke-width: 0.8; stroke-linecap: square"/>
     </g>
     <g id="text_13">
      <!-- LogP_C -->
      <g transform="translate(393.594226 340.539241) scale(0.07 -0.07)">
       <defs>
        <path id="DejaVuSans-4c" d="M 628 4666 
L 1259 4666 
L 1259 531 
L 3531 531 
L 3531 0 
L 628 0 
L 628 4666 
z
" transform="scale(0.015625)"/>
        <path id="DejaVuSans-67" d="M 2906 1791 
Q 2906 2416 2648 2759 
Q 2391 3103 1925 3103 
Q 1463 3103 1205 2759 
Q 947 2416 947 1791 
Q 947 1169 1205 825 
Q 1463 481 1925 481 
Q 2391 481 2648 825 
Q 2906 1169 2906 1791 
z
M 3481 434 
Q 3481 -459 3084 -895 
Q 2688 -1331 1869 -1331 
Q 1566 -1331 1297 -1286 
Q 1028 -1241 775 -1147 
L 775 -588 
Q 1028 -725 1275 -790 
Q 1522 -856 1778 -856 
Q 2344 -856 2625 -561 
Q 2906 -266 2906 331 
L 2906 616 
Q 2728 306 2450 153 
Q 2172 0 1784 0 
Q 1141 0 747 490 
Q 353 981 353 1791 
Q 353 2603 747 3093 
Q 1141 3584 1784 3584 
Q 2172 3584 2450 3431 
Q 2728 3278 2906 2969 
L 2906 3500 
L 3481 3500 
L 3481 434 
z
" transform="scale(0.015625)"/>
        <path id="DejaVuSans-50" d="M 1259 4147 
L 1259 2394 
L 2053 2394 
Q 2494 2394 2734 2622 
Q 2975 2850 2975 3272 
Q 2975 3691 2734 3919 
Q 2494 4147 2053 4147 
L 1259 4147 
z
M 628 4666 
L 2053 4666 
Q 2838 4666 3239 4311 
Q 3641 3956 3641 3272 
Q 3641 2581 3239 2228 
Q 2838 1875 2053 1875 
L 1259 1875 
L 1259 0 
L 628 0 
L 628 4666 
z
" transform="scale(0.015625)"/>
       </defs>
       <use xlink:href="#DejaVuSans-4c"/>
       <use xlink:href="#DejaVuSans-6f" transform="translate(53.962891 0)"/>
       <use xlink:href="#DejaVuSans-67" transform="translate(115.144531 0)"/>
       <use xlink:href="#DejaVuSans-50" transform="translate(178.621094 0)"/>
       <use xlink:href="#DejaVuSans-5f" transform="translate(238.923828 0)"/>
       <use xlink:href="#DejaVuSans-43" transform="translate(288.923828 0)"/>
      </g>
     </g>
    </g>
   </g>
   <g id="matplotlib.axis_2">
    <g id="ytick_1">
     <g id="line2d_14">
      <path d="M 270.450751 242.08581 
C 270.450751 235.715536 269.195946 229.407204 266.758147 223.521837 
C 264.320349 217.636471 260.746966 212.288525 256.242501 207.78406 
C 251.738037 203.279596 246.390091 199.706213 240.504725 197.268414 
C 234.619358 194.830616 228.311026 193.57581 221.940751 193.57581 
C 215.570476 193.57581 209.262145 194.830616 203.376778 197.268414 
C 197.491411 199.706213 192.143466 203.279596 187.639001 207.78406 
C 183.134537 212.288525 179.561154 217.636471 177.123355 223.521837 
C 174.685557 229.407204 173.430751 235.715536 173.430751 242.08581 
C 173.430751 248.456085 174.685557 254.764417 177.123355 260.649784 
C 179.561154 266.53515 183.134537 271.883096 187.639001 276.38756 
C 192.143466 280.892025 197.491411 284.465408 203.376778 286.903207 
C 209.262145 289.341005 215.570476 290.59581 221.940751 290.59581 
C 228.311026 290.59581 234.619358 289.341005 240.504725 286.903207 
C 246.390091 284.465408 251.738037 280.892025 256.242501 276.38756 
C 260.746966 271.883096 264.320349 266.53515 266.758147 260.649784 
C 269.195946 254.764417 270.450751 248.456085 270.450751 242.08581 
" clip-path="url(#p6f0a6955d0)" style="fill: none; stroke: #b0b0b0; stroke-width: 0.8; stroke-linecap: square"/>
     </g>
     <g id="text_14">
      <!-- 0.25 -->
      <g transform="translate(266.758147 222.481993) scale(0.05 -0.05)">
       <defs>
        <path id="DejaVuSans-30" d="M 2034 4250 
Q 1547 4250 1301 3770 
Q 1056 3291 1056 2328 
Q 1056 1369 1301 889 
Q 1547 409 2034 409 
Q 2525 409 2770 889 
Q 3016 1369 3016 2328 
Q 3016 3291 2770 3770 
Q 2525 4250 2034 4250 
z
M 2034 4750 
Q 2819 4750 3233 4129 
Q 3647 3509 3647 2328 
Q 3647 1150 3233 529 
Q 2819 -91 2034 -91 
Q 1250 -91 836 529 
Q 422 1150 422 2328 
Q 422 3509 836 4129 
Q 1250 4750 2034 4750 
z
" transform="scale(0.015625)"/>
        <path id="DejaVuSans-2e" d="M 684 794 
L 1344 794 
L 1344 0 
L 684 0 
L 684 794 
z
" transform="scale(0.015625)"/>
        <path id="DejaVuSans-32" d="M 1228 531 
L 3431 531 
L 3431 0 
L 469 0 
L 469 531 
Q 828 903 1448 1529 
Q 2069 2156 2228 2338 
Q 2531 2678 2651 2914 
Q 2772 3150 2772 3378 
Q 2772 3750 2511 3984 
Q 2250 4219 1831 4219 
Q 1534 4219 1204 4116 
Q 875 4013 500 3803 
L 500 4441 
Q 881 4594 1212 4672 
Q 1544 4750 1819 4750 
Q 2544 4750 2975 4387 
Q 3406 4025 3406 3419 
Q 3406 3131 3298 2873 
Q 3191 2616 2906 2266 
Q 2828 2175 2409 1742 
Q 1991 1309 1228 531 
z
" transform="scale(0.015625)"/>
        <path id="DejaVuSans-35" d="M 691 4666 
L 3169 4666 
L 3169 4134 
L 1269 4134 
L 1269 2991 
Q 1406 3038 1543 3061 
Q 1681 3084 1819 3084 
Q 2600 3084 3056 2656 
Q 3513 2228 3513 1497 
Q 3513 744 3044 326 
Q 2575 -91 1722 -91 
Q 1428 -91 1123 -41 
Q 819 9 494 109 
L 494 744 
Q 775 591 1075 516 
Q 1375 441 1709 441 
Q 2250 441 2565 725 
Q 2881 1009 2881 1497 
Q 2881 1984 2565 2268 
Q 2250 2553 1709 2553 
Q 1456 2553 1204 2497 
Q 953 2441 691 2322 
L 691 4666 
z
" transform="scale(0.015625)"/>
       </defs>
       <use xlink:href="#DejaVuSans-30"/>
       <use xlink:href="#DejaVuSans-2e" transform="translate(63.623047 0)"/>
       <use xlink:href="#DejaVuSans-32" transform="translate(95.410156 0)"/>
       <use xlink:href="#DejaVuSans-35" transform="translate(159.033203 0)"/>
      </g>
     </g>
    </g>
    <g id="ytick_2">
     <g id="line2d_15">
      <path d="M 318.960751 242.08581 
C 318.960751 229.345261 316.451141 216.728597 311.575544 204.957864 
C 306.699946 193.187131 299.55318 182.49124 290.544251 173.482311 
C 281.535322 164.473381 270.839431 157.326615 259.068698 152.451018 
C 247.297965 147.575421 234.681301 145.06581 221.940751 145.06581 
C 209.200202 145.06581 196.583538 147.575421 184.812805 152.451018 
C 173.042072 157.326615 162.34618 164.473381 153.337251 173.482311 
C 144.328322 182.49124 137.181556 193.187131 132.305959 204.957864 
C 127.430362 216.728597 124.920751 229.345261 124.920751 242.08581 
C 124.920751 254.82636 127.430362 267.443024 132.305959 279.213757 
C 137.181556 290.98449 144.328322 301.680381 153.337251 310.68931 
C 162.34618 319.698239 173.042072 326.845005 184.812805 331.720603 
C 196.583538 336.5962 209.200202 339.10581 221.940751 339.10581 
C 234.681301 339.10581 247.297965 336.5962 259.068698 331.720603 
C 270.839431 326.845005 281.535322 319.698239 290.544251 310.68931 
C 299.55318 301.680381 306.699946 290.98449 311.575544 279.213757 
C 316.451141 267.443024 318.960751 254.82636 318.960751 242.08581 
" clip-path="url(#p6f0a6955d0)" style="fill: none; stroke: #b0b0b0; stroke-width: 0.8; stroke-linecap: square"/>
     </g>
     <g id="text_15">
      <!-- 0.5 -->
      <g transform="translate(311.575544 203.91802) scale(0.05 -0.05)">
       <use xlink:href="#DejaVuSans-30"/>
       <use xlink:href="#DejaVuSans-2e" transform="translate(63.623047 0)"/>
       <use xlink:href="#DejaVuSans-35" transform="translate(95.410156 0)"/>
      </g>
     </g>
    </g>
    <g id="ytick_3">
     <g id="line2d_16">
      <path d="M 367.470751 242.08581 
C 367.470751 222.974986 363.706336 204.04999 356.39294 186.393891 
C 349.079544 168.737791 338.359395 152.693954 324.846001 139.180561 
C 311.332608 125.667167 295.288771 114.947018 277.632671 107.633622 
C 259.976572 100.320226 241.051576 96.55581 221.940751 96.55581 
C 202.829927 96.55581 183.904931 100.320226 166.248831 107.633622 
C 148.592732 114.947018 132.548895 125.667167 119.035501 139.180561 
C 105.522108 152.693954 94.801959 168.737791 87.488563 186.393891 
C 80.175167 204.04999 76.410751 222.974986 76.410751 242.08581 
C 76.410751 261.196635 80.175167 280.121631 87.488563 297.77773 
C 94.801959 315.43383 105.522108 331.477667 119.035501 344.99106 
C 132.548895 358.504454 148.592732 369.224603 166.248831 376.537999 
C 183.904931 383.851395 202.829927 387.61581 221.940751 387.61581 
C 241.051576 387.61581 259.976572 383.851395 277.632671 376.537999 
C 295.288771 369.224603 311.332608 358.504454 324.846001 344.99106 
C 338.359395 331.477667 349.079544 315.43383 356.39294 297.77773 
C 363.706336 280.121631 367.470751 261.196635 367.470751 242.08581 
" clip-path="url(#p6f0a6955d0)" style="fill: none; stroke: #b0b0b0; stroke-width: 0.8; stroke-linecap: square"/>
     </g>
     <g id="text_16">
      <!-- 0.75 -->
      <g transform="translate(356.39294 185.354047) scale(0.05 -0.05)">
       <defs>
        <path id="DejaVuSans-37" d="M 525 4666 
L 3525 4666 
L 3525 4397 
L 1831 0 
L 1172 0 
L 2766 4134 
L 525 4134 
L 525 4666 
z
" transform="scale(0.015625)"/>
       </defs>
       <use xlink:href="#DejaVuSans-30"/>
       <use xlink:href="#DejaVuSans-2e" transform="translate(63.623047 0)"/>
       <use xlink:href="#DejaVuSans-37" transform="translate(95.410156 0)"/>
       <use xlink:href="#DejaVuSans-35" transform="translate(159.033203 0)"/>
      </g>
     </g>
    </g>
    <g id="ytick_4">
     <g id="line2d_17">
      <path d="M 415.980751 242.08581 
C 415.980751 216.604711 410.96153 191.371383 401.210336 167.829917 
C 391.459141 144.288451 377.165609 122.896669 359.147751 104.878811 
C 341.129893 86.860952 319.738111 72.56742 296.196645 62.816226 
C 272.655178 53.065031 247.421851 48.04581 221.940751 48.04581 
C 196.459652 48.04581 171.226324 53.065031 147.684858 62.816226 
C 124.143392 72.56742 102.75161 86.860952 84.733752 104.878811 
C 66.715893 122.896669 52.422361 144.288451 42.671167 167.829917 
C 32.919972 191.371383 27.900751 216.604711 27.900751 242.08581 
C 27.900751 267.56691 32.919972 292.800237 42.671167 316.341704 
C 52.422361 339.88317 66.715893 361.274952 84.733752 379.29281 
C 102.75161 397.310668 124.143392 411.6042 147.684858 421.355395 
C 171.226324 431.106589 196.459652 436.12581 221.940751 436.12581 
C 247.421851 436.12581 272.655178 431.106589 296.196645 421.355395 
C 319.738111 411.6042 341.129893 397.310668 359.147751 379.29281 
C 377.165609 361.274952 391.459141 339.88317 401.210336 316.341704 
C 410.96153 292.800237 415.980751 267.56691 415.980751 242.08581 
" clip-path="url(#p6f0a6955d0)" style="fill: none; stroke: #b0b0b0; stroke-width: 0.8; stroke-linecap: square"/>
     </g>
     <g id="text_17">
      <!-- 1.0 -->
      <g transform="translate(401.210336 166.790073) scale(0.05 -0.05)">
       <defs>
        <path id="DejaVuSans-31" d="M 794 531 
L 1825 531 
L 1825 4091 
L 703 3866 
L 703 4441 
L 1819 4666 
L 2450 4666 
L 2450 531 
L 3481 531 
L 3481 0 
L 794 0 
L 794 531 
z
" transform="scale(0.015625)"/>
       </defs>
       <use xlink:href="#DejaVuSans-31"/>
       <use xlink:href="#DejaVuSans-2e" transform="translate(63.623047 0)"/>
       <use xlink:href="#DejaVuSans-30" transform="translate(95.410156 0)"/>
      </g>
     </g>
    </g>
   </g>
   <g id="line2d_18">
    <path d="M 381.902082 242.08581 
L 320.796903 190.202099 
L 264.819782 179.96481 
L 235.293574 132.115419 
L 167.077827 97.424167 
L 149.447375 177.862283 
L 67.716667 204.072988 
L 68.221314 279.974249 
L 218.431777 245.19449 
L 183.402751 343.702166 
L 236.030621 358.126324 
L 248.43621 280.471109 
L 319.467692 293.271897 
L 381.902082 242.08581 
" clip-path="url(#p6f0a6955d0)" style="fill: none; stroke: #408ec6; stroke-width: 1.5; stroke-linecap: square"/>
   </g>
   <g id="line2d_19">
    <path d="M 358.001483 242.08581 
L 321.984281 189.578916 
L 261.396228 184.924685 
L 234.346592 139.914517 
L 168.319748 100.698844 
L 165.483665 192.069196 
L 93.597164 210.451957 
L 126.994717 265.487906 
L 218.110556 245.479068 
L 192.588677 319.480869 
L 234.219943 343.214056 
L 260.931134 298.573131 
L 307.328014 286.900503 
L 358.001483 242.08581 
" clip-path="url(#p6f0a6955d0)" style="fill: none; stroke: #e84646; stroke-width: 1.5; stroke-linecap: square"/>
   </g>
   <g id="line2d_20">
    <path d="M 377.083049 242.08581 
L 322.001802 189.56972 
L 256.200583 192.451876 
L 235.916573 126.98456 
L 167.756608 99.213966 
L 144.841219 173.781585 
L 72.433741 205.235642 
L 62.475094 281.390565 
L 218.619231 245.028421 
L 181.643284 348.341499 
L 236.224536 359.72336 
L 248.46634 280.51476 
L 308.820952 287.684057 
L 377.083049 242.08581 
" clip-path="url(#p6f0a6955d0)" style="fill: none; stroke: #2ecc71; stroke-width: 1.5; stroke-linecap: square"/>
   </g>
   <g id="patch_6">
    <path d="M 415.980751 242.08581 
C 415.980751 216.604711 410.96153 191.371383 401.210336 167.829917 
C 391.459141 144.288451 377.165609 122.896669 359.147751 104.878811 
C 341.129893 86.860952 319.738111 72.56742 296.196645 62.816226 
C 272.655178 53.065031 247.421851 48.04581 221.940751 48.04581 
C 196.459652 48.04581 171.226324 53.065031 147.684858 62.816226 
C 124.143392 72.56742 102.75161 86.860952 84.733752 104.878811 
C 66.715893 122.896669 52.422361 144.288451 42.671167 167.829917 
C 32.919972 191.371383 27.900751 216.604711 27.900751 242.08581 
C 27.900751 267.56691 32.919972 292.800237 42.671167 316.341704 
C 52.422361 339.88317 66.715893 361.274952 84.733752 379.29281 
C 102.75161 397.310668 124.143392 411.6042 147.684858 421.355395 
C 171.226324 431.106589 196.459652 436.12581 221.940751 436.12581 
C 247.421851 436.12581 272.655178 431.106589 296.196645 421.355395 
C 319.738111 411.6042 341.129893 397.310668 359.147751 379.29281 
C 377.165609 361.274952 391.459141 339.88317 401.210336 316.341704 
C 410.96153 292.800237 415.980751 267.56691 415.980751 242.08581 
" style="fill: none; stroke: #000000; stroke-width: 0.8; stroke-linejoin: miter; stroke-linecap: square"/>
   </g>
   <g id="text_18">
    <!-- ABL – overlay by PDB -->
    <g transform="translate(152.410048 17.077969) scale(0.13 -0.13)">
     <defs>
      <path id="DejaVuSans-20" transform="scale(0.015625)"/>
      <path id="DejaVuSans-2013" d="M 313 1978 
L 2888 1978 
L 2888 1528 
L 313 1528 
L 313 1978 
z
" transform="scale(0.015625)"/>
      <path id="DejaVuSans-76" d="M 191 3500 
L 800 3500 
L 1894 563 
L 2988 3500 
L 3597 3500 
L 2284 0 
L 1503 0 
L 191 3500 
z
" transform="scale(0.015625)"/>
      <path id="DejaVuSans-61" d="M 2194 1759 
Q 1497 1759 1228 1600 
Q 959 1441 959 1056 
Q 959 750 1161 570 
Q 1363 391 1709 391 
Q 2188 391 2477 730 
Q 2766 1069 2766 1631 
L 2766 1759 
L 2194 1759 
z
M 3341 1997 
L 3341 0 
L 2766 0 
L 2766 531 
Q 2569 213 2275 61 
Q 1981 -91 1556 -91 
Q 1019 -91 701 211 
Q 384 513 384 1019 
Q 384 1609 779 1909 
Q 1175 2209 1959 2209 
L 2766 2209 
L 2766 2266 
Q 2766 2663 2505 2880 
Q 2244 3097 1772 3097 
Q 1472 3097 1187 3025 
Q 903 2953 641 2809 
L 641 3341 
Q 956 3463 1253 3523 
Q 1550 3584 1831 3584 
Q 2591 3584 2966 3190 
Q 3341 2797 3341 1997 
z
" transform="scale(0.015625)"/>
      <path id="DejaVuSans-79" d="M 2059 -325 
Q 1816 -950 1584 -1140 
Q 1353 -1331 966 -1331 
L 506 -1331 
L 506 -850 
L 844 -850 
Q 1081 -850 1212 -737 
Q 1344 -625 1503 -206 
L 1606 56 
L 191 3500 
L 800 3500 
L 1894 763 
L 2988 3500 
L 3597 3500 
L 2059 -325 
z
" transform="scale(0.015625)"/>
      <path id="DejaVuSans-62" d="M 3116 1747 
Q 3116 2381 2855 2742 
Q 2594 3103 2138 3103 
Q 1681 3103 1420 2742 
Q 1159 2381 1159 1747 
Q 1159 1113 1420 752 
Q 1681 391 2138 391 
Q 2594 391 2855 752 
Q 3116 1113 3116 1747 
z
M 1159 2969 
Q 1341 3281 1617 3432 
Q 1894 3584 2278 3584 
Q 2916 3584 3314 3078 
Q 3713 2572 3713 1747 
Q 3713 922 3314 415 
Q 2916 -91 2278 -91 
Q 1894 -91 1617 61 
Q 1341 213 1159 525 
L 1159 0 
L 581 0 
L 581 4863 
L 1159 4863 
L 1159 2969 
z
" transform="scale(0.015625)"/>
     </defs>
     <use xlink:href="#DejaVuSans-41"/>
     <use xlink:href="#DejaVuSans-42" transform="translate(68.408203 0)"/>
     <use xlink:href="#DejaVuSans-4c" transform="translate(137.011719 0)"/>
     <use xlink:href="#DejaVuSans-20" transform="translate(192.724609 0)"/>
     <use xlink:href="#DejaVuSans-2013" transform="translate(224.511719 0)"/>
     <use xlink:href="#DejaVuSans-20" transform="translate(274.511719 0)"/>
     <use xlink:href="#DejaVuSans-6f" transform="translate(306.298828 0)"/>
     <use xlink:href="#DejaVuSans-76" transform="translate(367.480469 0)"/>
     <use xlink:href="#DejaVuSans-65" transform="translate(426.660156 0)"/>
     <use xlink:href="#DejaVuSans-72" transform="translate(488.183594 0)"/>
     <use xlink:href="#DejaVuSans-6c" transform="translate(529.296875 0)"/>
     <use xlink:href="#DejaVuSans-61" transform="translate(557.080078 0)"/>
     <use xlink:href="#DejaVuSans-79" transform="translate(618.359375 0)"/>
     <use xlink:href="#DejaVuSans-20" transform="translate(677.539062 0)"/>
     <use xlink:href="#DejaVuSans-62" transform="translate(709.326172 0)"/>
     <use xlink:href="#DejaVuSans-79" transform="translate(772.802734 0)"/>
     <use xlink:href="#DejaVuSans-20" transform="translate(831.982422 0)"/>
     <use xlink:href="#DejaVuSans-50" transform="translate(863.769531 0)"/>
     <use xlink:href="#DejaVuSans-44" transform="translate(924.072266 0)"/>
     <use xlink:href="#DejaVuSans-42" transform="translate(1001.074219 0)"/>
    </g>
   </g>
   <g id="legend_1">
    <g id="patch_7">
     <path d="M 479.153501 50.86531 
L 526.804751 50.86531 
Q 528.404751 50.86531 528.404751 49.26531 
L 528.404751 14.83781 
Q 528.404751 13.23781 526.804751 13.23781 
L 479.153501 13.23781 
Q 477.553501 13.23781 477.553501 14.83781 
L 477.553501 49.26531 
Q 477.553501 50.86531 479.153501 50.86531 
z
" style="fill: #ffffff; opacity: 0.8; stroke: #cccccc; stroke-linejoin: miter"/>
    </g>
    <g id="line2d_21">
     <path d="M 480.753501 19.71656 
L 488.753501 19.71656 
L 496.753501 19.71656 
" style="fill: none; stroke: #408ec6; stroke-width: 1.5; stroke-linecap: square"/>
    </g>
    <g id="text_19">
     <!-- 2HZ0 -->
     <g transform="translate(503.153501 22.51656) scale(0.08 -0.08)">
      <defs>
       <path id="DejaVuSans-5a" d="M 359 4666 
L 4025 4666 
L 4025 4184 
L 1075 531 
L 4097 531 
L 4097 0 
L 288 0 
L 288 481 
L 3238 4134 
L 359 4134 
L 359 4666 
z
" transform="scale(0.015625)"/>
      </defs>
      <use xlink:href="#DejaVuSans-32"/>
      <use xlink:href="#DejaVuSans-48" transform="translate(63.623047 0)"/>
      <use xlink:href="#DejaVuSans-5a" transform="translate(138.818359 0)"/>
      <use xlink:href="#DejaVuSans-30" transform="translate(207.324219 0)"/>
     </g>
    </g>
    <g id="line2d_22">
     <path d="M 480.753501 31.45906 
L 488.753501 31.45906 
L 496.753501 31.45906 
" style="fill: none; stroke: #e84646; stroke-width: 1.5; stroke-linecap: square"/>
    </g>
    <g id="text_20">
     <!-- 2HZI -->
     <g transform="translate(503.153501 34.25906) scale(0.08 -0.08)">
      <defs>
       <path id="DejaVuSans-49" d="M 628 4666 
L 1259 4666 
L 1259 0 
L 628 0 
L 628 4666 
z
" transform="scale(0.015625)"/>
      </defs>
      <use xlink:href="#DejaVuSans-32"/>
      <use xlink:href="#DejaVuSans-48" transform="translate(63.623047 0)"/>
      <use xlink:href="#DejaVuSans-5a" transform="translate(138.818359 0)"/>
      <use xlink:href="#DejaVuSans-49" transform="translate(207.324219 0)"/>
     </g>
    </g>
    <g id="line2d_23">
     <path d="M 480.753501 43.20156 
L 488.753501 43.20156 
L 496.753501 43.20156 
" style="fill: none; stroke: #2ecc71; stroke-width: 1.5; stroke-linecap: square"/>
    </g>
    <g id="text_21">
     <!-- 5HU9 -->
     <g transform="translate(503.153501 46.00156) scale(0.08 -0.08)">
      <defs>
       <path id="DejaVuSans-55" d="M 556 4666 
L 1191 4666 
L 1191 1831 
Q 1191 1081 1462 751 
Q 1734 422 2344 422 
Q 2950 422 3222 751 
Q 3494 1081 3494 1831 
L 3494 4666 
L 4128 4666 
L 4128 1753 
Q 4128 841 3676 375 
Q 3225 -91 2344 -91 
Q 1459 -91 1007 375 
Q 556 841 556 1753 
L 556 4666 
z
" transform="scale(0.015625)"/>
       <path id="DejaVuSans-39" d="M 703 97 
L 703 672 
Q 941 559 1184 500 
Q 1428 441 1663 441 
Q 2288 441 2617 861 
Q 2947 1281 2994 2138 
Q 2813 1869 2534 1725 
Q 2256 1581 1919 1581 
Q 1219 1581 811 2004 
Q 403 2428 403 3163 
Q 403 3881 828 4315 
Q 1253 4750 1959 4750 
Q 2769 4750 3195 4129 
Q 3622 3509 3622 2328 
Q 3622 1225 3098 567 
Q 2575 -91 1691 -91 
Q 1453 -91 1209 -44 
Q 966 3 703 97 
z
M 1959 2075 
Q 2384 2075 2632 2365 
Q 2881 2656 2881 3163 
Q 2881 3666 2632 3958 
Q 2384 4250 1959 4250 
Q 1534 4250 1286 3958 
Q 1038 3666 1038 3163 
Q 1038 2656 1286 2365 
Q 1534 2075 1959 2075 
z
" transform="scale(0.015625)"/>
      </defs>
      <use xlink:href="#DejaVuSans-35"/>
      <use xlink:href="#DejaVuSans-48" transform="translate(63.623047 0)"/>
      <use xlink:href="#DejaVuSans-55" transform="translate(138.818359 0)"/>
      <use xlink:href="#DejaVuSans-39" transform="translate(212.011719 0)"/>
     </g>
    </g>
   </g>
  </g>
 </g>
 <defs>
  <clipPath id="p6f0a6955d0">
   <path d="M 415.980751 242.08581 
C 415.980751 216.604711 410.96153 191.371383 401.210336 167.829917 
C 391.459141 144.288451 377.165609 122.896669 359.147751 104.878811 
C 341.129893 86.860952 319.738111 72.56742 296.196645 62.816226 
C 272.655178 53.065031 247.421851 48.04581 221.940751 48.04581 
C 196.459652 48.04581 171.226324 53.065031 147.684858 62.816226 
C 124.143392 72.56742 102.75161 86.860952 84.733752 104.878811 
C 66.715893 122.896669 52.422361 144.288451 42.671167 167.829917 
C 32.919972 191.371383 27.900751 216.604711 27.900751 242.08581 
C 27.900751 267.56691 32.919972 292.800237 42.671167 316.341704 
C 52.422361 339.88317 66.715893 361.274952 84.733752 379.29281 
C 102.75161 397.310668 124.143392 411.6042 147.684858 421.355395 
C 171.226324 431.106589 196.459652 436.12581 221.940751 436.12581 
C 247.421851 436.12581 272.655178 431.106589 296.196645 421.355395 
C 319.738111 411.6042 341.129893 397.310668 359.147751 379.29281 
C 377.165609 361.274952 391.459141 339.88317 401.210336 316.341704 
C 410.96153 292.800237 415.980751 267.56691 415.980751 242.08581 
M 221.940751 242.08581 
C 221.940751 242.08581 221.940751 242.08581 221.940751 242.08581 
C 221.940751 242.08581 221.940751 242.08581 221.940751 242.08581 
C 221.940751 242.08581 221.940751 242.08581 221.940751 242.08581 
C 221.940751 242.08581 221.940751 242.08581 221.940751 242.08581 
C 221.940751 242.08581 221.940751 242.08581 221.940751 242.08581 
C 221.940751 242.08581 221.940751 242.08581 221.940751 242.08581 
C 221.940751 242.08581 221.940751 242.08581 221.940751 242.08581 
C 221.940751 242.08581 221.940751 242.08581 221.940751 242.08581 
C 221.940751 242.08581 221.940751 242.08581 221.940751 242.08581 
C 221.940751 242.08581 221.940751 242.08581 221.940751 242.08581 
C 221.940751 242.08581 221.940751 242.08581 221.940751 242.08581 
C 221.940751 242.08581 221.940751 242.08581 221.940751 242.08581 
C 221.940751 242.08581 221.940751 242.08581 221.940751 242.08581 
C 221.940751 242.08581 221.940751 242.08581 221.940751 242.08581 
C 221.940751 242.08581 221.940751 242.08581 221.940751 242.08581 
C 221.940751 242.08581 221.940751 242.08581 221.940751 242.08581 
z
"/>
  </clipPath>
 </defs>
</svg>
